<svg xmlns="http://www.w3.org/2000/svg" xml:space="preserve" viewBox="0.037 -0.011 688.963 386.15" y="0" x="0" id="Layer_1" preserveAspectRatio="xMidYMid meet"><style>.st0{fill:#fff}</style><path class="st0" transform="rotate(-57.832 23.268 16.169)" d="M20.3-9.4h6v51.2h-6z"/><path class="st0" d="M645.7 32.4l-3.2-5L685.8.1l3.2 5.1z"/><path class="st0" transform="rotate(-32.183 23.277 369.991)" d="M-2.3 367h51.2v6H-2.3z"/><path class="st0" d="M685.8 386l-43.3-27.2 3.2-5.1L689 381z"/><g><path d="M213.1 178l-.8.4h-.1c-1.4.6-2.8 1.1-4.2 1.7-14.4 6.4-29.3 9.9-45.2 7-14-2.5-25.6-9.2-33.8-21-11.1-16-8.4-36.8 2.8-52 .3-.4 1.1-1.4 1.1-1.4s1.4-.5 2-.6c4.8-.9 9.6-2.1 14.5-2.5 12.4-.9 24.2 1.9 35.4 7.4 1.8.9 2.4 1.3 2.4 1.3s17.5-12.4 23.2-16.5l-1.8-.9c-17.3-8.5-34.8-11.5-52.7-4.6-17 6.5-31.5 17.5-44.3 30.4-8.5 8.5-12.7 19.5-13 31.6-.4 16.2 7.1 28.5 20.4 37.2 13.3 8.7 28 10.8 43.6 8.1 19.2-3.3 35.4-12.5 49.8-25.1l.7-.5zM344.9 181.9c7.8-4.2 15.2-9.2 22.1-14.6 6.8-5.3 7-15.6 1.3-21.4-4.7-4.8-11.3-5.5-17.8-1.6-5 3-10.1 6.4-15.1 9.6-.9-2.1-.9-2.9-.9-2.9s8.2-5.8 11.1-8.2c15.9-13 24.8-29.5 24.2-50.5-.2-5.7-3.6-7.9-8.4-4.8-7.3 4.7-14.8 9.4-21.2 15.2-12.8 11.8-20.2 26.8-23.7 43.7-1.8 8.8-1.9 17.7 2.7 25.9 5.6 9.9 16.7 14.5 25.7 9.6zm2.9-25c4.4 3.3 6.6 9.1 5.1 14.2-8.8-2-13.8-7.9-16.8-15.7 3-1.9 8.1-1.2 11.7 1.5zm1.4-55.4c.2-.3.4-.6.7-.9.5-.6 1.2-1.4 1.5-1.4.4 2.2.3 6.2.2 8.3-.5 15.1-7.3 30.8-17.3 42.2l-.1-1.6c-.6-17.6 5.8-32.6 15-46.6z" class="st0"/><path d="M209.1 148.8s.1 9.5-7 13.9c-7 4.4-15 1.9-15 1.9l-20 12.8c5.7 3.2 12.1 4.5 18.1 2.2 0 0 7.5-2.7 14.1-7 6.5-4.4 9.9-9.2 9.9-9.2 1.6 5.6 3.9 10 8 13.4.1.1.2.2.4.3l3 1.9.6.3c7.1 3.3 14.1 2.9 20.9-.5 3.4-1.7 6.6-3.9 9.9-6 .4.4.8.9 1.2 1.2 3.8 3 8.2 3.3 12.8 1.3 3.1-1.3 5.9-3.3 8.8-5.1 2.1-1.3 4.1-2.5 6.3-4 .6 1.3.9 2.1 1.4 2.9 2.6 5.3 7.7 11.2 13.3 13.5l22-14.1-2.2-.9c-8.6-4.7-13.5-9.8-14.9-20.2-7.8 5-14 8.9-20.9 13.4-.6.4-1.6.8-2.2.6-4.2-.8-7.1-4.3-7.4-9.1 1.1.1 2.2.4 3.2.4 1.4-.1 2.6-.3 3.7-.9l19.6-12.6c-2.1-.7-6.7-1.6-8.4-1.7-6.9-.7-11.6 3.2-17.3 6.9-3 1.9-6.3 4.1-9.4 6.1-3.7 2.4-7 5-9.2 8.5 0 0-2.7 4.3-2.9 7.6-7-.4-12.6-3.1-16.8-8.6-4.3-5.5-5.5-13.7-4.5-21.3-9.6 5.8-19.1 12.1-19.1 12.1zM567.9 185.8c-13 .3-25.6-1.3-37.1-7.8-5.7-3.2-11.4-8.3-13.9-14.5-.7-1.9-.5-3.7 2.7-5.9 5-3.3 11.9-7.6 17.9-11.5 3.4-2.2 4.3-6.6 2.2-10l-.5-.8c-2-3.1-6-4-9.1-2-6.6 4.3-13.9 9.1-19.7 13.2-2.8 2-4.7 4.3-6.9 7-8.6 10.9-6.9 23 4.4 31.2 1.7 1.2 3.5 2.3 5.3 3.3 15.2 7.7 31.3 8.3 47.8 5.6 9.5-1.6 18.6-4.4 27.3-8.2 3.8-1.6 9.4-4.4 13-6.6l15.6-9c-13 6.5-34.5 15.6-49 16zm-45.6-43.9c2.9 1 3.9 2.8 3.7 5.4-.4 4.9-4.3 5-8.1 5.8 1.5-4.4 2.5-7.2 4.4-11.2zM471.2 166.4c1.3-1.9 2-6.2-.1-9.6-2.4-3.9-8.4-2.3-10.2-2.1-.8.1-1.8.5-5.3 1.4-2.6.7-4.8 1.2-6.3 1.7l1.5-23.7c-5.9 4.2-9 6-14.1 9.8-3.3 2.5-3.6 4.7-3.8 7.2l-2.9 33.3 18.6-6.8c10.2-4 19.9-7.2 22.6-11.2zm-22.3-.8c2.8.8 6.4 1.8 9.4 2.7-2.9 1.5-7.5 3.7-10 4.8.2-2.6.4-4.8.6-7.5zM494 143c.4-3.9.6-6.3 1.2-11-8.9 6.3-18.2 9.5-18.9 21.9l-2.2 30.8 17.7-8.4c.4-6.8 1.5-26.4 2.2-33.3zM377.3 240.5c-4.7-3.9-11-4.5-16.8-3.8-3.2.3-6.7.6-9.6 2.2l-.3.2-.1-8-17.7 11.3-.6.4s-.2 13.7-.3 19.8c-8.6-4.7-13.5-9.8-14.9-20.2-7.8 5-14 8.9-20.9 13.4-.6.4-1.6.8-2.2.6-4.2-.8-7.1-4.3-7.4-9.1 1.1.1 2.2.4 3.2.4 1.4-.1 2.6-.3 3.7-.9l19.6-12.6c-2.1-.7-6.7-1.6-8.4-1.7-6.9-.7-11.6 3.2-17.3 6.9-3 1.9-6.3 4.1-9.4 6.1-3.7 2.4-7 5-9.2 8.5 0-4.1 0-8.1.1-12.2.1-7.2.2-13.6.3-20.5l201.3-4.7 23.6-16.2-224.7 8.6.1-5.2c.1-2.6.2-9.9.2-9.9L250.8 206l-.4 3.7-11.3.4v-2.8c0-4.2.3-12.3.3-12.3l-18.6 12s-.3 1.6-.4 3.1l-.1.8-33.5 1.3-16.3 11.3 49-1.1c-.7 10.7-.8 19.8-1.3 30.5-.6 15.4-1.1 30.9-1.7 46.3l-.3 10.8 22.2-10.5-.1-39.2.7-38.4 10.1-.2c-.9 10.5-1.1 20.4-1.6 31.2-.3 7.5-.5 15.1-.7 22.6-.1 3.8-.1 7.5-.1 11.3v11.8s4.5-2.1 4.4-2.1c2.3-1 4.6-2.1 6.9-3.2 2.3-1.1 4.6-2.1 6.8-3.2.7-.4 4.1-1.9 4.1-1.9v-3.4-2.5c0-1.9-.1-3.8-.1-5.7 0-2.7-.1-5.5-.1-8.2 4 3.6 8.7 4.1 13.7 2 3.1-1.3 5.9-3.3 8.8-5.1 2.1-1.3 4.1-2.5 6.3-4 .6 1.3.9 2.1 1.4 2.9 2.6 5.3 7.7 11.2 13.3 13.5l19.7-12.7-1 75.9 23.3-12.7-.2-2.6c-1-15.3-2-30.6-2.5-46-.1-2.8-.2-5.4-.2-8.2 1.4-.2-.3 0 4.1-.7 4.4-.8 12.2-5 16.7-7.8 2.9-1.8 5.7-4.9 7.4-6.8 2.1-2.5 2.9-5.9 2-9-.8-2.7-2.3-5-4.2-6.6zm-20.9 16.7c-.4-.1-2.8 1.6-2.8 1.6-.9.5-1.8 1.1-2.6 1.6-.1-3.7-.1-7.5-.2-11.2 2.3.4 4.6 1.2 6.5 2.5 2.4 1.6 4.3 3.9 5 6.6-2-.4-4-.8-5.9-1.1z" class="st0"/><path d="M416.2 244.1c-.2 1.2-.5 3.2-1.3 3.5-3.6 1.4-6.6 2.2-10.3 3.3.5-5.9.9-12.5 1.3-18.8l-16.6 7.8c-.6 5.6-1.6 15.4-2.4 23.7-.5 4.8-1 8.8-1.7 14.6 5.3-3.5 7.2-4.7 11.7-7.7 2.7-1.7 5.2-4.7 6.1-7.7l1.4-4c.1-.1.2-.2.3-.2 3-1.5 6.1-2.2 9.3-3.5-.9 7.3-1.6 12.8-2.4 20.1l20-9.3c.4-6.6 1-16.5 1.7-23 .5-4.8.9-9 1.7-14.6-5.3 3.5-8.2 5.3-12.8 8.3-2.7 1.7-5.5 4.4-6 7.5zM472.3 246.4s.2 2.7-2.4 8.1c-2.6 5.4-6 7.2-6 7.2-2.6-.8-4.7-2.7-5.7-5.8-1-3.3-.9-7-.5-10.4.2-1.6.5-3.2.9-4.8.3-1.2.4-1.7.9-3.4l-16.1 9c-2.4 2.9-3.5 6.9-4.2 10.6-.6 3.2-.8 6.6-.2 9.9 1.1 6.1 7.2 8.3 12.7 6.2l23.6-12c1.6 4.1 3 6.4 5.7 9.5l20-9.4c-4.5-7.9-8.7-14.2-10.2-23.3l-18.5 8.6zM394.7 168.4l1.4-4c.1-.1.2-.2.3-.2 3-1.5 6.1-2.2 9.3-3.5-.9 7.3-1.6 12.8-2.4 20.1l20-9.3c.4-6.6 1-16.5 1.7-23 .5-4.8.9-9 1.7-14.6-5.3 3.5-8.2 5.3-12.8 8.3-2.7 1.7-5.5 4.4-6 7.6-.2 1.2-.5 3.2-1.3 3.5-3.6 1.4-6.6 2.2-10.3 3.3.5-5.9.9-12.5 1.3-18.8l-16.6 7.8c-.6 5.6-1.6 15.4-2.4 23.7-.5 4.8-1 8.8-1.7 14.6 5.3-3.5 7.2-4.7 11.7-7.7 2.7-1.8 5.2-4.8 6.1-7.8z" class="st0"/></g></svg>