<svg xmlns="http://www.w3.org/2000/svg" viewBox="0 0 324 49.319"><circle r="23.1" cy="23.1" cx="23.1" fill="#FFF"/><path d="M34.8 19.9l3.2-8.4c.7-1.6-1.8-4.4-5.7-6.3-3.9-1.9-7.6-2.2-8.5-.7L19 12c0 .1-.1.1-.1.2-.7 1.4.9 3.6 3.6 5.5l5.6 2.8c3.2 1 5.9.9 6.6-.4.1 0 .1-.1.1-.2z" fill="#FFDD09"/><path d="M24.5 47.5l4.2-11.1c.6-1.6-1.1-4.1-4.1-6.3l3.6-9.6 1.2-3.1c.3-.6-.6-1.6-2-2.3-1.4-.7-2.7-.8-3-.3l-1.8 2.8-5.6 8.7c-3.6-1.1-6.6-1-7.5.4L3 36.8s0 .1-.1.2c-1.2 2.4 2.6 6.7 8.6 9.7 5.9 3 11.7 3.5 12.9 1.1 0-.1 0-.2.1-.3z" fill="#FFDD09"/><path d="M24.4 47.7c-1.2 2.4-7 1.9-12.9-1.1s-9.7-7.3-8.6-9.7c.1 0 .1-.1.1-.1 1.4-2.1 7-1.6 12.8 1.3 5.7 2.9 9.5 7 8.7 9.5-.1 0-.1.1-.1.1zM34.7 20.2c-.7 1.4-3.4 1.4-6.6.4l1.2-3.1c.3-.6-.6-1.6-2-2.3-1.4-.7-2.7-.8-3-.3l-1.8 2.8c-2.7-1.9-4.3-4.2-3.6-5.5 0-.1.1-.1.1-.2 1.1-1.6 5.2-1.2 9.4 1 4.2 2.1 7 5.1 6.4 6.9 0 .1 0 .2-.1.3z" fill="#E9C006"/><path d="M38 11.5c.7-1.6-1.8-4.4-5.7-6.3-3.9-1.9-7.6-2.2-8.5-.7L19 12c1.1-1.6 5.2-1.2 9.4 1 4.2 2.1 7 5.1 6.4 6.9l3.2-8.4zM23.1 33.9l.1-.2c0 .1-.1.1-.1.2z" fill="#FFDD09"/><path d="M28.6 36.4c.6-1.6-1.1-4.1-4.1-6.3l3.6-9.6 1.2-3.1c.3-.6-.6-1.6-2-2.3-1.4-.7-2.7-.8-3-.3l-1.8 2.8-5.5 8.7c-3.6-1.1-6.6-1-7.5.4L3 36.8c1.4-2.1 7-1.6 12.8 1.3 5.7 2.9 9.5 7 8.7 9.5l4.1-11.2z" fill="#FFDD09"/><g fill="#FFF"><path d="M69.9 17h7.2l-1.6 9c-2.1.7-4.3 1-6.6 1-2.6 0-4.4-.7-5.5-2.2-1.1-1.5-1.5-3.6-1-6.3.5-2.7 1.6-4.8 3.4-6.2 1.8-1.5 4.1-2.2 6.8-2.2 1 0 2 .1 2.9.3.9.2 1.7.4 2.3.7l-2 3.5c-1.1-.6-2.4-.9-3.8-.9-1.3 0-2.4.4-3.3 1.3-.9.9-1.4 2.1-1.7 3.6-.3 1.6-.2 2.7.3 3.5.5.8 1.4 1.2 2.6 1.2.7 0 1.3-.1 1.9-.2l.5-2.6h-3l.6-3.5zM95.7 18.4c-.5 2.8-1.6 4.9-3.2 6.4S88.7 27 86.1 27c-2.6 0-4.5-.7-5.6-2.2-1.1-1.5-1.4-3.6-1-6.4.5-2.8 1.5-4.9 3.2-6.3 1.6-1.5 3.8-2.2 6.4-2.2 2.6 0 4.5.7 5.6 2.2 1.2 1.4 1.5 3.5 1 6.3zm-11.4 0c-.6 3.2.3 4.8 2.5 4.8 1.1 0 2-.4 2.7-1.2.7-.8 1.2-2 1.5-3.6.3-1.7.2-2.9-.2-3.7-.4-.8-1.2-1.2-2.3-1.2-2.2.1-3.6 1.7-4.2 4.9zM97.3 26.7l2.9-16.6h4.5l-2.3 13h6.4l-.6 3.6H97.3zM126.4 18.1c-.5 2.8-1.6 4.9-3.4 6.4-1.8 1.5-4.1 2.2-6.8 2.2h-5.4l2.9-16.6h5.7c2.7 0 4.6.7 5.8 2 1.2 1.5 1.6 3.4 1.2 6zm-4.7.2c.3-1.5.2-2.6-.3-3.4-.5-.7-1.3-1.1-2.5-1.1h-1.3l-1.6 9.3h1c1.4 0 2.4-.4 3.2-1.2.7-.8 1.2-2 1.5-3.6zM127.3 22.3l.6-3.5h6.4l-.6 3.5h-6.4zM146.9 21.7c-.2 1-.6 1.9-1.3 2.7-.7.8-1.5 1.4-2.6 1.9-1.1.4-2.3.7-3.6.7-1.1 0-2-.1-2.7-.2-.7-.2-1.5-.4-2.2-.8l.7-4c.8.4 1.6.8 2.5 1 .9.2 1.7.4 2.5.4.7 0 1.2-.1 1.5-.3.4-.2.6-.5.6-.9 0-.2 0-.4-.1-.6-.1-.2-.3-.3-.5-.5s-.9-.5-2-1.1c-1-.5-1.7-1-2.2-1.4-.5-.5-.8-1-.9-1.6-.2-.6-.2-1.3 0-2.1.3-1.5 1-2.7 2.3-3.6 1.3-.9 2.9-1.3 4.8-1.3 1.7 0 3.4.4 5 1.2l-2 3.5c-1.4-.7-2.7-1.1-3.8-1.1-.6 0-1 .1-1.3.3-.3.2-.5.5-.5.8-.1.3.1.6.3.9.3.3 1.1.7 2.5 1.4 1.3.6 2.2 1.3 2.6 2.1.5.6.6 1.5.4 2.6zM155.9 26.7h-4.5l2.3-12.9h-4l.6-3.7h12.6l-.6 3.7h-4l-2.4 12.9zM172.5 26.7l-.3-3.1h-5.4l-1.4 3.1h-4.9l8.3-16.6h6l2.5 16.6h-4.8zm-.6-6.7l-.2-2.7c-.1-.6-.1-1.4-.2-2.3-.1-1-.1-1.6-.1-2.1-.1.4-.4 1-.7 1.9-.4.9-1.1 2.6-2.3 5.2h3.5zM195 26.7h-5.9l-4-11.7h-.1c-.2 1.8-.4 3.2-.5 4.2l-1.3 7.5h-4l2.9-16.6h5.9l4 11.5h.1c.2-1.7.4-3 .6-4l1.3-7.5h4l-3 16.6zM214.1 18.1c-.5 2.8-1.6 4.9-3.4 6.4-1.8 1.5-4.1 2.2-6.8 2.2h-5.4l2.9-16.6h5.7c2.7 0 4.6.7 5.8 2 1.3 1.5 1.7 3.4 1.2 6zm-4.6.2c.3-1.5.2-2.6-.3-3.4-.5-.7-1.3-1.1-2.5-1.1h-1.3l-1.6 9.3h1c1.4 0 2.4-.4 3.2-1.2.6-.8 1.2-2 1.5-3.6zM225.8 26.7l-.3-3.1h-5.4l-1.4 3.1h-4.9l8.3-16.6h6l2.5 16.6h-4.8zm-.6-6.7l-.2-2.7c-.1-.6-.1-1.4-.2-2.3-.1-1-.1-1.6-.1-2.1-.1.4-.4 1-.7 1.9-.4.9-1.1 2.6-2.3 5.2h3.5zM238 20.7l-1.1 6h-4.5l2.9-16.6h5.4c4.5 0 6.5 1.6 5.9 4.9-.3 1.9-1.5 3.4-3.6 4.5l3.6 7.2h-5.1l-2.5-6h-1zm.6-3.4h.8c1.6 0 2.5-.7 2.7-2.1.2-1.1-.5-1.7-2-1.7h-.9l-.6 3.8zM255.5 26.7H251l2.3-12.9h-4l.6-3.7h12.6l-.6 3.7h-4l-2.4 12.9zM261.4 24.9c.1-.7.4-1.2.9-1.6.5-.4 1.1-.6 1.9-.6.7 0 1.3.2 1.6.6.3.4.4.9.3 1.6-.1.7-.4 1.2-.9 1.6-.5.4-1.1.6-1.8.6s-1.3-.2-1.7-.6c-.3-.4-.4-1-.3-1.6zM278.3 13.6c-1.1 0-2 .4-2.7 1.3-.8.9-1.3 2.1-1.5 3.6-.6 3.2.4 4.8 2.8 4.8.7 0 1.5-.1 2.2-.3.7-.2 1.5-.4 2.2-.7l-.7 3.8c-1.5.6-3.1.9-4.9.9-2.5 0-4.3-.7-5.4-2.2-1.1-1.4-1.4-3.5-.9-6.3.3-1.7.9-3.2 1.8-4.5.9-1.3 2-2.3 3.3-3 1.3-.7 2.8-1 4.5-1 1.8 0 3.4.4 4.9 1.2l-2 3.5c-.6-.3-1.1-.5-1.7-.7-.6-.3-1.2-.4-1.9-.4zM300.6 18.4c-.5 2.8-1.5 4.9-3.2 6.4-1.6 1.5-3.8 2.2-6.4 2.2-2.6 0-4.5-.7-5.6-2.2-1.1-1.5-1.5-3.6-1-6.4.5-2.8 1.5-4.9 3.2-6.3 1.6-1.5 3.8-2.2 6.4-2.2 2.6 0 4.5.7 5.6 2.2 1.2 1.4 1.5 3.5 1 6.3zm-11.4 0c-.6 3.2.3 4.8 2.5 4.8 1.1 0 2-.4 2.7-1.2.7-.8 1.2-2 1.5-3.6.3-1.7.2-2.9-.2-3.7-.4-.8-1.2-1.2-2.3-1.2-2.2.1-3.6 1.7-4.2 4.9zM309.4 26.7l-1.3-11.9h-.1c-.2 2-.4 3.6-.6 4.7l-1.3 7.2h-4l2.9-16.6h6l1.4 11.8h.1l5.5-11.8h6l-3 16.6h-4.1l1.3-7.3c.1-.4.1-.8.2-1.3s.3-1.6.7-3.4h-.1l-5.4 11.9h-4.2z"/><g><path d="M63.2 40.1c-.9 0-1.6-.3-1.9-.8-.4-.6-.5-1.3-.3-2.4.2-1 .6-1.8 1.2-2.4.6-.6 1.4-.9 2.3-.9.3 0 .6 0 .9.1.3.1.5.1.7.2l-.4.8c-.2-.1-.4-.2-.6-.2-.2-.1-.4-.1-.6-.1-1.3 0-2 .8-2.3 2.4-.1.8-.1 1.4.2 1.8.2.4.7.6 1.3.6.5 0 1.1-.1 1.7-.3l-.1.8c-.9.3-1.4.4-2.1.4zM71.5 34.5h-2l-1 5.4h-.9l1-5.4h-2l.1-.8h5l-.2.8zM75.6 39.9V39c-.4.4-.7.7-1.1.8-.3.1-.7.2-1.2.2-.6 0-1.1-.2-1.4-.5-.3-.3-.4-.8-.3-1.4.2-1.3 1.3-1.9 3.4-2h1.1l.1-.4c.1-.5 0-.8-.1-1.1-.2-.2-.5-.4-.9-.4-.5 0-1.1.2-1.8.5l-.4-.5c.3-.2.7-.3 1.1-.4.4-.1.8-.1 1.1-.1.7 0 1.3.2 1.6.5.3.3.4.9.3 1.6l-.7 4.3h-.8zm-2-.6c.6 0 1.1-.2 1.5-.5.4-.3.6-.8.7-1.4l.1-.6H75c-.8 0-1.3.1-1.7.3-.4.2-.6.5-.7 1-.1.3 0 .6.2.8.1.3.4.4.8.4zM80.3 33.7l-.5 2.6h3.5l.5-2.6h.9l-1.1 6.2h-.9l.5-2.8h-3.5l-.5 2.8h-.9l1.1-6.2h.9zM90.6 42.1h-.9l.4-2.2h-4.4l-.4 2.2h-.9l.5-3h.5c.6-.7 1.2-1.5 1.6-2.4.5-.9.8-1.9 1-3h3.2l-1 5.4h.9l-.5 3zm-1.2-3l.8-4.7h-1.4c-.2.8-.5 1.7-.9 2.6-.4.9-.9 1.6-1.4 2.1h2.9zM96.1 39.9V39c-.4.4-.7.7-1.1.8-.3.1-.7.2-1.2.2-.6 0-1.1-.2-1.4-.5-.3-.3-.4-.8-.3-1.4.2-1.3 1.3-1.9 3.4-2h1.1l.1-.4c.1-.5 0-.8-.1-1.1-.2-.2-.5-.4-.9-.4-.5 0-1.1.2-1.8.5l-.2-.7c.3-.2.7-.3 1.1-.4.4-.1.8-.1 1.1-.1.7 0 1.3.2 1.6.5.3.3.4.9.3 1.6l-.7 4.3h-1zm-2-.6c.6 0 1.1-.2 1.5-.5.4-.3.6-.8.7-1.4l.1-.6h-1c-.8 0-1.3.1-1.7.3-.4.2-.6.5-.7 1-.1.3 0 .6.2.8.2.3.5.4.9.4zM101.6 40.1c-.4 0-.8-.1-1.1-.2-.3-.1-.6-.4-.7-.7h-.1c0 .4-.1.7-.1 1l-.5 2.6h-.9l1.6-9h.8v.9c.3-.3.6-.6 1-.7.3-.2.7-.2 1.1-.2.8 0 1.4.3 1.8.8.4.6.4 1.4.3 2.4-.2 1-.5 1.8-1.1 2.4-.6.4-1.3.7-2.1.7zm.9-5.7c-.6 0-1.1.2-1.5.5-.3.4-.6.9-.7 1.7v.2c-.2.9-.1 1.5.1 1.9.2.4.7.6 1.3.6.5 0 1-.2 1.4-.7.4-.4.6-1 .8-1.8.1-.8.1-1.4-.1-1.8-.4-.4-.8-.6-1.3-.6zM111 34.5h-2l-1 5.4h-.9l1-5.4h-2l.1-.8h5l-.2.8zM116.8 40.1c-.9 0-1.6-.3-1.9-.8-.4-.6-.5-1.3-.3-2.4.2-1 .6-1.8 1.2-2.4.6-.6 1.4-.9 2.3-.9.3 0 .6 0 .9.1.3.1.5.1.7.2l-.4.8c-.2-.1-.4-.2-.6-.2-.2-.1-.4-.1-.6-.1-1.3 0-2 .8-2.3 2.4-.1.8-.1 1.4.2 1.8.2.4.7.6 1.3.6.5 0 1.1-.1 1.7-.3l-.1.8c-.9.3-1.5.4-2.1.4zM120.8 39.9h-.9l1.1-6.2h5.2l-1.1 6.2h-1l1-5.4h-3.3l-1 5.4zM133 36.8c-.2 1-.6 1.8-1.2 2.4-.6.6-1.4.9-2.3.9-.6 0-1-.1-1.4-.4-.4-.3-.7-.6-.8-1.1-.1-.5-.2-1.1 0-1.7.2-1 .6-1.8 1.2-2.4.6-.6 1.4-.8 2.3-.8.9 0 1.5.3 1.9.9.4.5.5 1.2.3 2.2zm-4.7 0c-.1.8-.1 1.4.2 1.8.2.4.7.6 1.3.6.6 0 1.1-.2 1.5-.6.4-.4.7-1 .8-1.8.1-.8.1-1.4-.2-1.8-.2-.4-.7-.6-1.3-.6-.6 0-1.1.2-1.5.6-.4.4-.7 1-.8 1.8zM137 40.1c-.4 0-.8-.1-1.1-.2-.3-.1-.5-.4-.7-.7h-.1c0 .4-.1.7-.1 1l-.5 2.6h-.9l1.6-9h.8v.9c.3-.3.6-.6 1-.7.3-.2.7-.2 1.2-.2.8 0 1.4.3 1.8.8.3.6.4 1.4.3 2.4-.2 1-.5 1.8-1.1 2.4-.7.4-1.4.7-2.2.7zm.9-5.7c-.6 0-1.1.2-1.5.5-.3.4-.6.9-.7 1.7v.2c-.2.9-.1 1.5.1 1.9.2.4.7.6 1.3.6.5 0 1-.2 1.4-.7.4-.4.6-1 .8-1.8.1-.8.1-1.4-.1-1.8-.4-.4-.8-.6-1.3-.6zM146.4 34.5h-2l-1 5.4h-.9l1-5.4h-2l.1-.8h5l-.2.8zM148.7 33.7l-.7 4-.2 1-.1.3 4.3-5.3h1.2l-1.1 6.2h-.9l.7-3.8.1-.7.2-.7-4.3 5.3h-1.2l1.1-6.2h.9zM160 35.3c-.1.4-.2.7-.5.9-.3.2-.6.4-1.1.4v.1c.5.1.9.2 1.1.5.2.2.3.6.2 1-.1.6-.4 1-.9 1.3-.5.3-1.1.5-2 .5h-2.7l1.1-6.2h2.7c1.6-.1 2.2.4 2.1 1.5zm-1.3 2.8c.1-.3 0-.6-.3-.7-.2-.2-.6-.2-1.2-.2h-1.7l-.4 2.1h1.7c1.2-.1 1.8-.5 1.9-1.2zm.3-2.7c.1-.3 0-.5-.2-.6-.2-.1-.6-.2-1-.2H156l-.3 1.8h1.6c.6 0 1-.1 1.3-.2.2-.3.4-.5.4-.8zM162.7 33.7l-.5 2.6h3.5l.5-2.6h.9l-1.1 6.2h-.9l.5-2.8h-3.5l-.5 2.8h-.9l1.1-6.2h.9zM174 36.8c-.2 1-.6 1.8-1.2 2.4-.6.6-1.4.9-2.3.9-.6 0-1-.1-1.4-.4-.4-.3-.7-.6-.8-1.1-.1-.5-.2-1.1-.1-1.7.2-1 .6-1.8 1.2-2.4.6-.6 1.4-.8 2.3-.8.9 0 1.5.3 1.9.9.5.5.6 1.2.4 2.2zm-4.7 0c-.1.8-.1 1.4.2 1.8.2.4.7.6 1.3.6.6 0 1.1-.2 1.5-.6.4-.4.7-1 .8-1.8.1-.8.1-1.4-.2-1.8-.2-.4-.7-.6-1.3-.6-.6 0-1.1.2-1.5.6-.4.4-.7 1-.8 1.8zM179.8 34.5H177l-1 5.4h-.9l1.1-6.2h3.8l-.2.8zM186 36.8c-.2 1-.6 1.8-1.2 2.4-.6.6-1.4.9-2.3.9-.6 0-1-.1-1.4-.4-.4-.3-.7-.6-.8-1.1-.2-.5-.2-1.1-.1-1.7.2-1 .6-1.8 1.2-2.4.6-.6 1.4-.8 2.3-.8.9 0 1.5.3 1.9.9.5.5.6 1.2.4 2.2zm-4.7 0c-.1.8-.1 1.4.2 1.8.2.4.7.6 1.3.6.6 0 1.1-.2 1.5-.6.4-.4.7-1 .8-1.8.1-.8.1-1.4-.2-1.8-.2-.4-.7-.6-1.3-.6-.6 0-1.1.2-1.5.6-.4.4-.7 1-.8 1.8zM191.1 39.9h-.9l1.1-6.2h5.2l-1.1 6.2h-1l1-5.4h-3.3l-1 5.4zM199.4 33.7l-.7 4-.2 1-.1.3 4.3-5.3h1.2l-1.1 6.2h-.9l.7-3.8.1-.7.2-.7-4.3 5.3h-1.2l1.1-6.2h.9zM209.9 34.5h-2l-1 5.4h-.9l1-5.4h-2l.1-.8h5l-.2.8zM214 39.9V39c-.4.4-.7.7-1.1.8-.3.1-.7.2-1.2.2-.6 0-1.1-.2-1.4-.5-.3-.3-.4-.8-.3-1.4.2-1.3 1.3-1.9 3.4-2h1.1l.1-.4c.1-.5 0-.8-.1-1.1-.2-.2-.5-.4-.9-.4-.5 0-1.1.2-1.8.5l-.2-.7c.3-.2.7-.3 1.1-.4.4-.1.8-.1 1.1-.1.7 0 1.3.2 1.6.5.3.3.4.9.3 1.6l-.8 4.3h-.9zm-2-.6c.6 0 1.1-.2 1.5-.5.4-.3.6-.8.7-1.4l.1-.6h-1c-.8 0-1.3.1-1.7.3-.4.2-.6.5-.7 1-.1.3 0 .6.2.8.3.3.5.4.9.4zM218.7 33.7l-.5 2.6h3.5l.5-2.6h.9l-1.1 6.2h-.9l.5-2.8h-3.5l-.5 2.8h-.9l1.1-6.2h.9zM226 33.7l-.7 4-.2 1-.1.3 4.3-5.3h1.2l-1.1 6.2h-.9l.7-3.8.1-.7.2-.7-4.3 5.3H224l1.1-6.2h.9zM231.7 39.9h-1.1l2.3-2.6c-.5-.1-.8-.3-1-.6-.2-.3-.3-.7-.2-1.2.1-.6.4-1 .8-1.3.4-.3 1-.5 1.7-.5h2.8l-1.1 6.2h-.9l.4-2.5h-1.6l-2.1 2.5zm.9-4.3c-.1.7.3 1.1 1.4 1.1h1.5l.4-2.1h-1.7c-.9-.1-1.4.3-1.6 1z"/></g><g><path d="M275.6 35.7v-.3c-.1.2-.2.5-.3.7l-.5 1h1.2l-.2-1.1c-.1 0-.2-.1-.2-.3zM298.9 35.3c-.4 0-.7.1-.9.4-.2.3-.4.6-.5 1.1-.1.5-.1.9.1 1.1.2.3.4.4.8.4s.7-.1.9-.4c.2-.2.4-.6.5-1.1.1-.5.1-.9-.1-1.1-.2-.3-.4-.4-.8-.4zM271 36.8c-.3.5-.5 1-.8 1.4h1.7l.5-2.8h-.9c0 .4-.2.9-.5 1.4zM302.4 36.8c-.3.5-.5 1-.8 1.4h1.7l.5-2.8h-.9c-.1.4-.3.9-.5 1.4zM287 35.5c-.1-.1-.3-.1-.6-.1h-.6l-.2 1.1h.6c.3 0 .5 0 .6-.1.1-.1.2-.2.3-.4.1-.3.1-.4-.1-.5zM286.2 37h-.7l-.2 1.3h.7c.3 0 .5-.1.6-.2.2-.1.3-.3.3-.5s0-.4-.1-.5c-.1-.1-.3-.1-.6-.1zM265 38.1c.2-.1.3-.3.3-.5s0-.4-.1-.5c-.1-.1-.4-.1-.7-.1h-.5l-.2 1.3h.5c.3-.1.5-.1.7-.2zM249.2 38.1c.2-.1.3-.3.3-.5s0-.4-.1-.5c-.1-.1-.4-.1-.7-.1h-.4l-.2 1.3h.5c.2-.1.4-.1.6-.2z"/><path d="M243.3 32.6l-1.5 8.4h78.9l1.5-8.4h-78.9zm7 2.8h-1.8l-.2 1.1h.5c1 0 1.5.4 1.4 1.2-.1.8-.7 1.2-1.7 1.2h-1.2l.7-4h2.4l-.1.5zm3 1l-.1.5h-1.5l-.2 1.2h1.6l-.1.6h-2.2l.7-4h2.2l-.1.5H252l-.2 1.1h1.5zm3.2.6c.2.2.2.4.2.6-.1.4-.3.7-.6.9-.3.2-.7.3-1.2.3s-.9-.1-1.2-.2l.1-.6c.2.1.3.1.6.2.2 0 .4.1.6.1.7 0 1.1-.2 1.2-.7 0-.2 0-.4-.2-.5-.2-.1-.5-.2-.9-.2h-.5l.1-.5h.4c.8 0 1.2-.2 1.3-.6 0-.2 0-.3-.1-.4-.1-.1-.3-.1-.5-.1s-.4 0-.6.1c-.2.1-.4.1-.6.3l-.2-.4c.5-.3 1-.4 1.5-.4.4 0 .7.1.9.3.2.2.3.4.2.7 0 .3-.2.5-.4.6-.2.2-.5.3-.8.3.3 0 .6.1.7.2zm6.1-.2c-.1.6-.4 1.1-.7 1.5-.4.4-.9.5-1.5.5s-1-.2-1.3-.5c-.3-.4-.3-.9-.2-1.5.1-.7.4-1.2.7-1.5.4-.4.9-.5 1.5-.5s1 .2 1.3.5c.2.3.3.8.2 1.5zm3.5-1.4h-1.8l-.2 1.1h.5c1 0 1.5.4 1.4 1.2-.1.8-.7 1.2-1.7 1.2h-1.2l.7-4h2.4l-.1.5zm2.7 3.4h-2.2l.7-4h2.2l-.1.5h-1.6l-.2 1.1h1.5l-.1.6h-1.5l-.2 1.2h1.6l-.1.6zm4 1.1h-.6l.2-1.1h-2.6l-.2 1.1h-.6l.3-1.6h.3c.3-.5.7-1 .9-1.6.3-.6.5-1.2.7-1.8h2l-.6 3.4h.5l-.3 1.6zm3.3-1.1l-.2-1.1h-1.5l-.6 1.1h-.7l2.2-4h.7l.8 4h-.7zm6 0h-.6l.4-2c.1-.3.1-.7.3-1.1l-2.6 3.2h-.8l.7-4h.6l-.4 2.1c0 .2-.1.4-.1.7-.1.2-.1.4-.1.4l2.6-3.2h.8l-.8 3.9zm5.5-1.8c.1.2.1.4.1.6-.1.4-.2.6-.5.8-.3.2-.6.3-1.1.3h-1.4l.7-4h1.2c.5 0 .9.1 1.1.2.2.2.3.4.2.8 0 .2-.1.4-.3.6-.1.2-.3.2-.6.3.3.2.5.3.6.4zm3 1.5c-.3.2-.7.3-1.2.3h-1.1l.7-4h.6l-.3 1.6h.5c.5 0 .9.1 1.1.3.2.2.3.5.2.9-.1.4-.2.7-.5.9zm.9.3l.7-4h.7l-.7 4h-.7zm4.6 0h-.7l-.7-1.6-1.3 1.6h-.7l1.7-2.1-.9-1.9h.7l.7 1.5 1.2-1.5h.7l-1.6 1.9.9 2.1zm2.2 0c-.6 0-1-.2-1.3-.5-.3-.4-.3-.9-.2-1.5.1-.7.4-1.2.7-1.5.4-.4.9-.5 1.5-.5s1 .2 1.3.5c.3.4.3.9.2 1.5-.1.6-.4 1.1-.7 1.5-.5.4-.9.5-1.5.5zm6.2-.6l-.3 1.6h-.6l.2-1.1h-2.6l-.2 1.1h-.6l.3-1.6h.3c.3-.5.7-1 .9-1.6.3-.6.5-1.2.7-1.8h2l-.6 3.4h.5zm3.6.6h-.7l.3-1.8H306l-.3 1.8h-.7l.7-4h.6l-.3 1.6h1.8l.3-1.6h.7l-.7 4zm3.4-.3c-.3.2-.7.3-1.2.3h-1.1l.7-4h.6l-.3 1.6h.5c.5 0 .9.1 1.1.3.2.2.3.5.2.9-.1.4-.2.7-.5.9zm.8.3l.7-4h.6l-.7 4h-.6zm4.7 0h-.7l-.7-1.6-1.3 1.6h-.7l1.7-2.1-.9-1.9h.7l.7 1.5 1.2-1.5h.7l-1.6 1.9.9 2.1z"/><path d="M310.5 37h-.4l-.2 1.3h.4c.3 0 .5 0 .7-.2.2-.1.3-.3.3-.5s0-.4-.1-.5c-.1-.1-.3-.1-.7-.1zM289.6 37h-.4l-.2 1.3h.4c.3 0 .5 0 .7-.2.2-.1.3-.3.3-.5s0-.4-.1-.5c-.1-.1-.3-.1-.7-.1zM261 35.3c-.4 0-.7.1-.9.4-.2.3-.4.6-.5 1.1-.1.5-.1.9.1 1.1.2.3.4.4.8.4s.7-.1.9-.4c.2-.2.4-.6.5-1.1.1-.5.1-.9-.1-1.1-.2-.3-.4-.4-.8-.4z"/></g></g></svg>