<svg xmlns="http://www.w3.org/2000/svg" style="box-shadow:none;border-radius:0" viewBox="0 0 134.6 134.6" fill="#fff"><path d="M53.4 72.3c0 2.4 1.3 3.9 3.6 3.9 3.8 0 7.1-6.2 7.1-11.9 0-2.4-1.3-3.9-3.5-3.9-3.7-.1-7.2 5.6-7.2 11.9zM74.4 92.3c-.8 3.7-2.5 10.8-3.6 15.9 5.1-.6 8.1-5.4 8.1-10.5.1-3.4-1.8-5.2-4.5-5.4zM103.4 105.9h5.3l-1.6-8.7z"/><path d="M0 0v134.6h134.6V0H0zm77 21.7c5.7 0 8.8 3.8 8.8 9.1 0 8.7-5.5 18.3-13.9 18.3-5.8 0-9-3.8-9-9.2 0-9.7 6.4-18.2 14.1-18.2zm17 61.8c-.3.4-.6.8-.9 1.1-1.1 1.2-2.1 1.6-3 1.6-1 0-1.7-.6-2.2-1.2l-6.7-9.7s-1.1.1-3.1.1l-1.4 6c-.5.1-1 .1-1.4.1-3.6 0-4.2-2-3.9-3.5L77 54.2c.5-.1.9-.1 1.4-.1h5.4c6 0 9.7 3.7 9.7 8.8 0 4.4-2.6 8.4-6.6 10.6l7.1 10zM70.1 63.7c0 8.8-5.5 18.3-13.9 18.3-5.7 0-9-3.8-9-9.2 0-9.8 6.4-18.3 14.1-18.3 5.7 0 8.8 3.8 8.8 9.2zM46.2 19.8c2.3 0 3.2.9 3.5 2l4.4 14.1 4-17.2c.5-.1 1-.1 1.4-.1 3.3 0 3.9 1.7 3.5 3.4l-6.2 26.9c-.5.1-.9.1-1.4.1-1.3 0-2.1-.3-2.7-.6-.5-.4-.9-.9-1.1-1.5l-4.3-13.8-2.9 12.3c-.5.1-.9.1-1.4.1-3.5 0-3.9-2-3.5-3.5l5.3-22c.6-.2 1-.2 1.4-.2zM32 77.2s-.9.8-2.3.8c-1.6 0-2.3-.6-2.6-1.6-.4-2.5-1.3-9-1.3-9l-3.2 14.1c-.5.1-1 .1-1.4.1-3.5 0-4.2-2-3.9-3.5l5.6-23.8c.5-.1 1.2-.1 1.6-.1 3.9 0 4.3 1.2 4.6 2.2l2.4 11.1c3.3-5.2 6.6-10.4 10.1-15.7.5-.1 1-.1 1.4-.1 3.3 0 4.2 1.7 3.8 3.4l-6.9 27.8c-.5.1-.9.1-1.4.1-3.6 0-4.2-2-3.9-3.5l2.9-11.7c-2.3 3.6-4.9 7.9-5.5 9.4zM16.7 46.5l6.2-26.6c.5-.1 1-.1 1.4-.1 3.3 0 4.2 1.7 3.8 3.4l-2 8.7 11.6-11.8c.5.2.9.4 1.2.6 1.5 1 2.1 2 2.1 2.9 0 .7-.4 1.4-.9 2l-9.5 9.7 7.2 13.3c-.3.4-.6.7-.9 1-1.1 1-2.1 1.4-2.9 1.4-1.1 0-1.9-.7-2.3-1.4-.9-1.6-3.4-6.3-5.4-10-1.1 1.1-2.7 2.8-2.7 2.8s-1.6 7.2-1.7 7.5c-.5.1-1 .1-1.4.1-3.5 0-4.2-2-3.8-3.5zm21.3 72c-3.5 0-4.2-1.9-3.8-3.5l3.5-14.1s-3.8 6.4-5.5 9.9c0 0-.9.9-2.3.9-1.5 0-2.3-.6-2.6-1.6-.3-2-.8-6.8-1.4-10.3l-3.3 14.5c-.5.1-1 .1-1.4.1-3.5 0-4.2-2-3.9-3.5l5.6-23.8c.5-.1 1.2-.1 1.6-.1 3.9 0 4.3 1.2 4.6 2.2l2.5 11.9c3.3-5.1 6.5-10.3 9.9-15.5.5-.1 1-.1 1.4-.1 3.3 0 4.2 1.7 3.8 3.4l-7.3 29.6H38zm22.6-7.9c.1.5.2 1 .2 1.4 0 2.3-1.6 4.4-3.9 4.4h-8.2c-3.5 0-4.2-2-3.9-3.5l5.6-23.8c.4-.1.9-.1 1.4-.1h13.9c.1.5.2 1 .2 1.4 0 2.3-1.6 4.4-3.9 4.4h-7l-1.1 5H62c.1.5.2 1 .2 1.4 0 2.3-1.6 4.4-3.9 4.4h-5.7s-.8 3.5-1.1 5h9.1zm8.7 3.4h-1.1c-3.5 0-4.2-2-3.9-3.5l5.6-23.8c.5-.1.9-.1 1.4-.1h2.5c6.8 0 11.3 4.3 11.3 11-.1 8.7-6.3 16.4-15.8 16.4zm20 2.7c-3.5 0-4.2-2-3.8-3.5L91 89.4c.5-.1 1-.1 1.4-.1 3.3 0 4.2 1.7 3.8 3.4l-5.5 23.9c-.5.1-1 .1-1.4.1zm25.7-1.2c-.9.4-1.7.6-2.3.6-1.6 0-2.4-1.1-2.6-2.2l-.4-2.5H101s-1.9 4.4-2 4.7c-.5 0-1 0-1.4-.1-3.5-.7-3.3-2.7-2.7-4.2l10.6-24.3c1-.6 2.2-.9 3.5-.9 1.5 0 2.3 1 2.5 2.1l4.7 26.1c-.4.3-.8.5-1.2.7zm-1.3-56.2H105l-1.1 5h9.9c.1.5.2 1 .2 1.4 0 2.3-1.6 4.4-3.9 4.4h-7.5l-1.1 5h11c.1.5.2 1 .2 1.4 0 2.3-1.6 4.4-4 4.4H98.5c-3.4 0-4-2-3.7-3.5l5.6-23.8c.5-.1.9-.1 1.4-.1h15.7c.1.5.2 1 .2 1.4 0 2.4-1.6 4.4-4 4.4zm6-37.4l-10.1 25s-1 .4-2.9.4c-1.8 0-2.6-1.3-2.7-2.4l-1.7-11.2-6.5 16.2s-1.3.4-3 .4c-1.9 0-2.7-1.2-2.8-2.4l-1.5-27.1c.4-.3.9-.4 1.3-.6 3.1-1.1 4.6.3 4.7 1.9l.7 14.3 5.5-13.5c.4-.3.9-.4 1.2-.6 3.1-1.1 4.4.3 4.7 1.9l1.7 10.4 6.8-16.7c.5 0 1 0 1.4.1 3.2.5 3.8 2.3 3.2 3.9z"/><path d="M72.7 43.4c3.8 0 7-6.2 7-12 0-2.4-1.3-3.9-3.5-3.9-3.6 0-7.1 5.7-7.1 11.9 0 2.5 1.3 4 3.6 4zM83.4 60h-1.6l-2.2 9.7h1c3.5 0 6.9-2.1 6.9-5.9-.1-2.5-1.7-3.8-4.1-3.8z"/></svg>