<svg xmlns="http://www.w3.org/2000/svg" overflow="scroll" viewBox="0 0 170.7 107.3"><path d="M141.2 78c1.4.1 2.6.1 3.6.1 1.3 0 2.7-.1 3.9-.5 1.1-.4 1.9-1.1 1.9-2.4 0-2.2-2.3-2.5-5.2-3l-.4-.1h-.1c-4-.7-7.2-1.2-7.2-5.1 0-2 .9-3.3 2.3-4 1.4-.7 3.2-.9 5.1-.9.9 0 2 .1 3.1.1 1.2.1 2.4.2 3.6.4h.2v.2l-.1 1.6v.2h-.2c-1-.2-2-.3-3-.4-1.2-.1-2.4-.1-3.3-.1-1.3 0-2.7.1-3.7.5S140 65.7 140 67c0 1.1.4 1.7 1.3 2.1.9.4 2.2.6 4 .9 2.1.4 4 .7 5.3 1.4 1.4.7 2.2 1.8 2.2 3.7 0 2.1-1.1 3.3-2.6 4-1.5.7-3.4.8-5 .8-1.1 0-2.3 0-3.5-.1-1.3-.1-2.5-.2-3.8-.4h-.2v-.2l.1-1.6v-.2h.2c1 .4 2.1.5 3.2.6M131 71.2c1-.5 1.5-1.5 1.5-3.1 0-1.7-.6-2.6-1.5-3.1-1-.5-2.4-.6-4-.6h-2.4c-1.1 0-2.3.1-3.5.2v7.2c1.1.1 2.3.1 3.3.1h2.7c1.5-.1 2.9-.2 3.9-.7m-10 2.5V79.8h-2.1V62.5h.2c1.5-.1 3-.2 4.4-.2 1.4-.1 2.6-.1 3.5-.1 2.2 0 4.1.2 5.4 1 1.4.8 2.2 2.3 2.2 4.8 0 1.8-.4 3.1-1.2 3.9-.7.8-1.7 1.3-2.8 1.5l3.6 5.9v.4h-.1l-1.7.2h-.1l-.1-.1-3.8-6.1H124.2c-1 .1-2.1 0-3.2 0m-5.7 4.3l-.1 1.6v.2H100.8V62.5H115.3v.2l-.1 1.6v.2H102.9v5.6h11v.2l-.1 1.7v.2H102.9v5.6H115.3v.2zM84.6 65.8l-5.3 13.9v.1h-1.6v-.1l-6-16.9-.1-.3h2.2v.1l4.7 13.8 5.4-13.8v-.1h1.6v.1l5.4 13.8 4.7-13.8v-.1h2.2l-.1.3-5.9 16.9v.1h-1.6l-.2-.1-5.4-13.9zM55.4 76.7c1.3 1.1 3 1.4 4.9 1.4 1.9 0 3.6-.4 4.9-1.5 1.2-1.1 2-2.8 2-5.4 0-2.7-.8-4.5-2-5.5-1.3-1-3-1.4-4.9-1.4-1.9 0-3.6.4-4.9 1.5-1.2 1.1-2 2.8-2 5.4 0 2.7.8 4.4 2 5.5m11.2 1.5c-1.6 1.4-3.8 1.9-6.3 1.9-2.4 0-4.7-.5-6.3-1.9-1.6-1.4-2.7-3.6-2.7-7.1 0-3.4 1-5.6 2.6-7 1.6-1.4 3.8-1.9 6.3-1.9 2.4 0 4.7.5 6.3 1.9 1.6 1.4 2.7 3.6 2.7 7.1 0 3.4-1 5.6-2.6 7m-30.3-.4H48.7v.2l-.1 1.6v.2H34.2V62.5h2.1V77.8zm-17.7-5.6V79.8h-2.1V62.5H31v.2l-.1 1.6v.2H18.6v5.6h11v2.1h-11zM101 39.3v15.2h-2.1V39.3h-7.2v-2.1h16.4v.2l-.1 1.7v.2h-7zm-24 7.6V54.5h-2.1V37.3H89.4v.2l-.1 1.7v.2H77V45h11v.2l-.1 1.7v.2H77zm-10.3 1.9l-4.4-8.6-4.4 8.6h8.8zm4.9 5.7h-2l-.1-.1-2-3.8H56.9L55 54.4l-.1.1h-2.3l.1-.3 8.7-16.9v-.1H63.1v.1l8.7 16.9.1.3h-.3zm-24.9-8.6c1-.5 1.5-1.5 1.5-3.1 0-1.7-.6-2.6-1.5-3.1-1-.5-2.4-.6-4-.6-.6 0-1.5 0-2.4.1-1.1 0-2.3.1-3.5.1v7.2c1.1.1 2.2.1 3.2.1 1.1 0 2 .1 2.7.1 1.6-.1 3-.2 4-.8m-10 2.5V54.5h-2.1V37.3h.2c1.5-.1 3-.1 4.4-.2 1.4-.1 2.6-.1 3.5-.1 2.2 0 4.1.2 5.4 1 1.4.8 2.2 2.3 2.2 4.8 0 1.8-.4 3.1-1.2 3.9-.7.8-1.7 1.3-2.8 1.5l3.6 5.9v.4h-.1l-1.7.2H48l-.1-.1-3.8-6.1h-1.4c-.7 0-1.7 0-2.8-.1-1 .1-2.1.1-3.2 0m-18.1-1.5V54.5h-2.1V37.3h2.1V44.9h4l6.8-7.6.1-.1H31.8l.1.1.1.1-.1.1-7.4 8.3 7.4 8.2.1.1V54.4h-.1l-1.8.2H30l-.1-.1-7-7.8h-4.3z" fill="#FFF"/><path d="M93.5 107.3c-1.9-8.2-4.6-13-7.3-12.9h-2.4c-7.3.1-11.8 4.8-13.9 7.7l-1.5-1.1c1.4-2 3.9-4.8 7.5-6.6H0V22.1h72c-2.2-1-3.4-2.4-4.6-3.7-.8-.9-1.5-1.7-2.5-2.3L63 14.9l2.2-.5c5.1-1.3 10.1-1.5 12.1 5.4l-1.8.5c-1.2-4-3.2-5.3-7.9-4.5l1.3 1.3c2.2 2.4 4.5 4.9 14 4.9H87.8c9.5 0 11.8-2.5 14-4.9.4-.4.8-.9 1.3-1.3-4.7-.8-6.8.5-7.9 4.5l-1.8-.5c2-6.9 7-6.6 12.1-5.4l2.2.5-1.9 1.2c-1 .6-1.7 1.4-2.5 2.3-1.2 1.3-2.4 2.6-4.5 3.7h71.9v72.3h-76c3.7 1.8 6.1 4.6 7.5 6.6l-1.5 1.1c-1.6-2.3-4.9-5.9-9.9-7.2 2.3 2.8 3.8 7.7 4.8 12l-2.1.4zm-6.9-14.8h81.9V23.9H1.9v68.5h84.4c0 .1.2.1.3.1zm-1.3-70.9c-2.7 0-4.9-2.2-4.9-4.8 0-2.7 2.2-4.9 4.9-4.9s4.8 2.2 4.8 4.9c0 2.6-2.2 4.8-4.8 4.8zm0-7.8c-1.6 0-3 1.3-3 3 0 1.6 1.3 3 3 3 1.6 0 3-1.3 3-3-.1-1.7-1.4-3-3-3zm-9.1.7c-2.7-1.6-3.1-4.5-3.6-7.2-.1-.8-.2-1.6-.4-2.3l-.4-1.6 1.6.5c1.3.4 2.3.7 3.2.9 2.8.8 4.2 1.1 5.5 4.4l-1.7.7c-1-2.4-1.6-2.6-4.3-3.3-.5-.1-1.1-.3-1.8-.5 0 .3.1.6.1.9.4 2.6.7 4.8 2.7 5.9l-.9 1.6zm17-.2l-.7-1.7C96.1 11 95.6 9.2 95 7c-.1-.4-.2-.9-.3-1.4h-.6c-3.3.1-4 .2-5.3 3.9L87 8.9c1.6-4.7 3.2-5 7-5.1.4 0 .9 0 1.4-.1l1-.1v1c0 .5.2 1.2.4 1.9.6 2.2 1.5 5.7-3.6 7.8zM87 6c-.9-.6-1.7-1.6-2.4-2.5-.3-.4-.6-.7-.8-1-.8.8-1.2 1.5-1.5 2.2-.2.4-.3.7-.6 1l-1.6-1.1c.1-.2.3-.5.4-.8.4-.9 1-2.1 2.7-3.4l.6-.4.6.5c.5.5 1.1 1.1 1.6 1.8.6.8 1.4 1.7 2 2.2L87 6z" fill="#FFF"/></svg>