<svg xmlns="http://www.w3.org/2000/svg" viewBox="0 -0.1 158.9 84.219"><path d="M0 3.7V.8h14v2.8h-3.7v32.6h4.9c1.9 0 3.2-.3 3.9-.8.7-.5 1.2-1.4 1.5-2.5.1-.6.3-1.8.4-3.6.1-.6.1-1.1.2-1.7.1-.6.1-1.1.1-1.7H26v13.3H0v-2.9h3.6V3.7H0zm49.7 25.9H38.3l-1.8 6.9h3.6v2.8H28.3v-2.8h2.8L41.5.2h6.4l10.8 36.3h3.5v2.8H47.9v-2.8h3.7l-1.9-6.9zM43.8 8.3l-4.7 18.2h9.7l-5-18.2zm30.3 21.2l7.1-25.9h-3.5V.8h12.4v2.8h-3.7L75.2 39.2h-4.3L59.3 3.6h-3.6V.8h14.4v2.8h-3.5l7.5 25.9zm32.5 9.7H92.7v-2.9h3.6V3.7h-3.6V.8h13.9v2.9h-3.7V17c2.1.1 3.4-.3 4.1-1.2.6-1 1.1-2.2 1.2-3.8.1-.5.1-1.3.2-2.3.1-1 .1-1.8.2-2.4.3-2.2.9-3.9 1.8-5.3 1-1.4 2.8-2 5.6-2.1 2.3 0 4 .6 5.1 1.8s1.7 2.7 1.6 4.4c0 1.3-.4 2.2-1.1 2.9-.7.7-1.6 1-2.6 1-.8-.1-1.6-.4-2.2-1-.7-.6-1.1-1.4-1.2-2.3 0-.8.1-1.4.4-1.8 0-.1.1-.2.1-.3.1-.1.1-.2.2-.3.2-.3.2-.6.1-.8-.1-.3-.4-.4-.8-.4-1-.1-1.7.5-2 1.7-.3 1.3-.4 3.2-.5 5.8-.1 2.1-.3 3.5-.8 4.4-.7 1.4-1.8 2.5-3.5 3.1.3.1.5.1.7.2.2.1.4.1.5.2l1.8.6c1.9.7 3.3 2.1 4.1 4.1.8 2 1.4 5 1.7 9 .1 1.5.3 2.5.8 3 .7.8 1.9 1.1 3.5.9V39c-1.6.6-3 .9-4.2.8-2.2 0-3.8-.6-4.9-1.7-1.1-1.1-1.7-2.4-2-3.7-.3-1.4-.6-3.8-.9-7.3-.3-2.3-.6-3.8-1.1-4.6-.5-.8-1.2-1.4-2.2-1.9-1-.5-2.2-.7-3.6-.4v16.1h3.7v2.9zm39.8-9.6H135l-1.8 6.9h3.6v2.8H125v-2.8h2.8L138.2.2h6.4l10.8 36.3h3.5v2.8h-14.3v-2.8h3.7l-1.9-6.9zm-6-21.3l-4.7 18.2h9.7l-5-18.2zM0 48v-2.9h14v2.8h-3.7v32.6h4.9c1.9 0 3.2-.3 3.9-.8.7-.5 1.2-1.4 1.5-2.5.1-.6.3-1.8.4-3.6.1-.6.1-1.1.2-1.7.1-.6.1-1.1.1-1.7H26v13.3H0v-2.9h3.6V48H0zm49.7 25.8H38.3l-1.8 6.9h3.6v2.8H28.3v-2.8h2.8l10.4-36.3h6.4l10.8 36.3h3.5v2.8H47.9v-2.8h3.7l-1.9-6.9zm-5.9-21.3l-4.7 18.2h9.7l-5-18.2zm30.3 21.3l7.1-25.9h-3.5v-2.8h12.4v2.8h-3.7L75.2 83.5h-4.3L59.3 47.9h-3.6v-2.8h14.4v2.8h-3.5l7.5 25.9zm32.5 9.7H92.7v-2.9h3.6V48h-3.6v-2.9h13.9V48h-3.7v13.3c2.1.1 3.4-.3 4.1-1.2.6-1 1.1-2.2 1.2-3.8.1-.5.1-1.3.2-2.3.1-1 .1-1.8.2-2.4.3-2.2.9-3.9 1.8-5.3 1-1.4 2.8-2 5.6-2.1 2.3 0 4 .6 5.1 1.8s1.7 2.7 1.6 4.4c0 1.3-.4 2.2-1.1 2.9-.7.7-1.6 1-2.6 1-.8-.1-1.6-.4-2.2-1-.7-.6-1.1-1.4-1.2-2.3 0-.8.1-1.4.4-1.8 0-.1.1-.2.1-.3.1-.1.1-.2.2-.3.2-.3.2-.6.1-.8-.1-.3-.4-.4-.8-.4-1-.1-1.7.5-2 1.7-.3 1.3-.4 3.2-.5 5.8-.1 2.1-.3 3.5-.8 4.4-.7 1.4-1.8 2.5-3.5 3.1.3.1.5.1.7.2.2.1.4.1.5.2l1.8.6c1.9.7 3.3 2.1 4.1 4.1.8 2 1.4 5 1.7 9 .1 1.5.3 2.5.8 3 .7.8 1.9 1.1 3.5.9v2.9c-1.6.6-3 .9-4.2.8-2.2 0-3.8-.6-4.9-1.7-1.1-1.1-1.7-2.4-2-3.7-.3-1.4-.6-3.8-.9-7.3-.3-2.3-.6-3.8-1.1-4.6-.5-.8-1.2-1.4-2.2-1.9-1-.5-2.2-.7-3.6-.4v16.1h3.7v2.9zm39.8-9.7H135l-1.8 6.9h3.6v2.8H125v-2.8h2.8l10.4-36.3h6.4l10.8 36.3h3.5v2.8h-14.3v-2.8h3.7l-1.9-6.9zm-6-21.3l-4.7 18.2h9.7l-5-18.2z" fill="#FFF"/></svg>