<svg xmlns="http://www.w3.org/2000/svg" viewBox="0 0 292.007 154.6"><path d="M77.3 0C34.7 0 0 34.7 0 77.3c0 42.6 34.7 77.3 77.3 77.3s77.3-34.7 77.3-77.3C154.5 34.7 119.8 0 77.3 0zm0 33.7c24 0 43.6 19.5 43.6 43.6 0 24-19.5 43.6-43.6 43.6s-43.6-19.5-43.6-43.6 19.5-43.6 43.6-43.6zm-2-3.8c-25.3 1-45.5 21.9-45.5 47.4 0 26.2 21.3 47.5 47.5 47.5s47.5-21.3 47.5-47.5c0-25.5-20.3-46.3-45.5-47.4v-3.7c27.3 1 49.2 23.5 49.2 51 0 28.2-22.9 51.1-51.1 51.1-28.2 0-51.1-22.9-51.1-51.1 0-27.5 21.9-50 49.2-51v3.7zm0-7.6c-29.4 1-53.1 25.2-53.1 54.9 0 30.3 24.7 55 55 55 30.4 0 55-24.7 55-55 0-29.7-23.6-53.9-53.1-54.9v-3.5c31.3 1 56.5 26.8 56.5 58.4 0 32.3-26.2 58.5-58.5 58.5s-58.5-26.2-58.5-58.5c0-31.6 25.2-57.3 56.5-58.4v3.5zm0-7.3c-33.5 1-60.4 28.5-60.4 62.3 0 34.4 28 62.4 62.4 62.4s62.4-28 62.4-62.4c0-33.7-26.9-61.2-60.4-62.3v-3.4c35.4 1 63.9 30.1 63.9 65.7 0 36.3-29.5 65.8-65.8 65.8s-65.8-29.5-65.8-65.8c0-35.6 28.5-64.7 63.9-65.7V15zm2 135.6c-40.4 0-73.4-32.9-73.4-73.4C3.9 37.5 35.8 5 75.3 4v3.6C37.8 8.7 7.5 39.5 7.5 77.3c0 38.5 31.3 69.7 69.7 69.7 38.5 0 69.7-31.3 69.7-69.7 0-37.8-30.2-68.6-67.8-69.6V4c39.5 1 71.4 33.5 71.4 73.3.1 40.4-32.8 73.3-73.2 73.3z" fill="#FFF"/><g fill="#FFF"><path d="M195.3 28.1h-.1l-10.4 25.8h-2.9l-10.4-25.8h-.1l.4 13v9.3l3.6.6v2.8h-11.6V51l3.6-.6V25.1l-3.6-.6v-2.8h9.2l10.3 26.2h.1l10.3-26.2h9.2v2.8l-3.6.6v25.4l3.6.6v2.8h-11.6v-2.8l3.6-.6v-9.3l.4-13.1zM222 53.9c-.1-.6-.2-1.2-.3-1.7-.1-.5-.1-1-.2-1.6-.8 1.1-1.9 2-3.2 2.7-1.3.7-2.6 1.1-4 1.1-2.5 0-4.4-.6-5.7-1.8-1.3-1.2-1.9-2.9-1.9-5.1 0-2.3.9-4 2.8-5.3 1.8-1.2 4.4-1.8 7.6-1.8h4.5v-2.8c0-1.4-.4-2.5-1.3-3.3-.9-.8-2.1-1.2-3.7-1.2-1.1 0-2.1.1-2.9.4-.8.3-1.5.7-2 1.2l-.5 2.5h-3.4v-4.7c1.1-.9 2.4-1.6 4-2.1s3.2-.8 5-.8c2.7 0 4.9.7 6.6 2.1 1.7 1.4 2.5 3.4 2.5 6v12.4c0 .3 0 .6.1.9l1.8.2V54H222zm-7-3.2c1.4 0 2.8-.3 4-1 1.2-.7 2.1-1.5 2.6-2.5v-3.9h-4.7c-1.8 0-3.2.4-4.2 1.2-1 .8-1.6 1.8-1.6 3 0 1 .3 1.8 1 2.4.6.5 1.6.8 2.9.8zM230.9 60.3l3.6-.6V33.4l-3.6-.6V30h7.4l.4 2.9c.8-1.1 1.8-1.9 2.9-2.5 1.1-.6 2.5-.9 4-.9 3 0 5.3 1.2 6.9 3.5 1.6 2.4 2.5 5.5 2.5 9.3v.5c0 3.5-.8 6.2-2.5 8.4-1.7 2.1-3.9 3.2-6.8 3.2-1.5 0-2.8-.2-3.9-.7-1.1-.5-2.1-1.2-2.8-2.2v8.3l3.6.6v2.8H231v-2.9zm19.6-17.9c0-2.7-.5-5-1.6-6.7-1.1-1.7-2.6-2.6-4.7-2.6-1.2 0-2.3.3-3.2.8-.9.6-1.6 1.3-2.1 2.3v11.7c.5 1 1.3 1.8 2.1 2.3.9.5 2 .8 3.2.8 2.1 0 3.6-.8 4.7-2.3 1.1-1.5 1.6-3.5 1.6-5.9v-.4zM170.5 63v6.1h5.3v2.2h-5.3V87c0 1.6.3 2.7.9 3.3.6.7 1.3 1 2.3 1 .4 0 .8 0 1.3-.1.4 0 .9-.1 1.4-.2l.4 2c-.4.2-1 .3-1.6.4-.6.1-1.3.2-1.9.2-1.7 0-3-.5-3.9-1.6-.9-1.1-1.4-2.7-1.4-5V71.4h-4.1v-2.2h4.1V63h2.5zM179.9 60.6v-2h6.2v14.7c.8-1.4 1.9-2.5 3.2-3.3 1.3-.8 2.9-1.2 4.7-1.2 2.5 0 4.5.8 5.8 2.3 1.4 1.6 2 4 2 7.3v12.5l3.6.3v1.9h-9.9v-1.9l3.6-.3V78.3c0-2.6-.5-4.5-1.5-5.6-1-1.1-2.4-1.7-4.2-1.7-1.8 0-3.3.5-4.6 1.4-1.2 1-2.1 2.2-2.7 3.8v14.6l3.6.3V93h-9.9v-1.9l3.6-.3V60.9l-3.5-.3zM217.9 93.6c-3 0-5.5-1.1-7.5-3.3-2-2.2-3-5-3-8.4v-1.2c0-3.4 1-6.3 3-8.5 2-2.3 4.4-3.4 7.1-3.4 2.9 0 5.2.9 6.9 2.8 1.7 1.9 2.5 4.3 2.5 7.4v2.3H210v.6c0 2.7.7 4.9 2.2 6.8 1.4 1.8 3.3 2.7 5.7 2.7 1.6 0 3-.2 4.2-.7 1.2-.5 2.2-1.1 3-2l1.1 1.8c-.9.9-2 1.7-3.4 2.2-1.4.6-3 .9-4.9.9zm-.4-22.6c-1.9 0-3.6.7-4.9 2.2-1.3 1.5-2.1 3.4-2.3 5.6v.1h14v-.7c0-2.1-.6-3.8-1.8-5.2-1.2-1.3-2.9-2-5-2zM195.3 106.6h-.1l-10.4 25.8h-2.9l-10.4-25.8h-.1l.4 13v9.3l3.6.6v2.8h-11.6v-2.8l3.6-.6v-25.4l-3.6-.6v-2.8h9.2l10.3 26.2h.1l10.3-26.2h9.2v2.8l-3.6.6V129l3.6.6v2.8h-11.6v-2.8l3.6-.6v-9.3l.4-13.1zM223.5 128.8c-.8 1.3-1.7 2.3-2.9 3-1.2.7-2.6 1-4.1 1-2.6 0-4.6-.8-6.1-2.5s-2.2-4.3-2.2-7.8v-10.7l-2.7-.6v-2.8H212.6v14.2c0 2.6.4 4.3 1.1 5.3.8 1 1.9 1.4 3.5 1.4 1.5 0 2.8-.3 3.8-.9 1-.6 1.8-1.5 2.3-2.7v-13.8l-3.2-.6v-2.8H227.7V129l2.7.6v2.8h-6.7l-.2-3.6zM252.3 116H249l-.7-2.9c-.5-.5-1.2-.9-2-1.2-.8-.3-1.7-.5-2.7-.5-1.5 0-2.7.3-3.5 1-.8.7-1.1 1.5-1.1 2.5 0 .9.3 1.7 1 2.2.7.5 2 1 4.1 1.5 3 .6 5.3 1.5 6.8 2.6s2.2 2.6 2.2 4.5c0 2.1-.9 3.8-2.6 5.2-1.7 1.3-4 2-6.7 2-1.8 0-3.4-.2-4.9-.6-1.4-.4-2.7-1-3.9-1.8V125h3.3l.8 3.2c.5.5 1.2.8 2 1 .9.2 1.7.3 2.6.3 1.5 0 2.8-.3 3.6-.9.9-.6 1.3-1.5 1.3-2.5s-.4-1.7-1.1-2.4c-.7-.6-2.1-1.2-4.2-1.6-2.9-.6-5.1-1.5-6.6-2.6s-2.2-2.6-2.2-4.4c0-1.9.8-3.6 2.5-5s3.8-2.1 6.5-2.1c1.8 0 3.4.2 4.9.7 1.4.5 2.6 1.1 3.6 2l.3 5.3zM257.1 129.6l3.6-.6v-17.1l-3.6-.6v-2.8h8V129l3.6.6v2.8h-11.6v-2.8zm7.9-27.3h-4.4v-4.5h4.4v4.5zM282.7 129.4c1.4 0 2.7-.4 3.8-1.3 1.1-.9 1.6-2 1.6-3.3h3.9v.1c.1 2.1-.8 3.9-2.8 5.5-1.9 1.6-4.1 2.4-6.7 2.4-3.5 0-6.1-1.1-8-3.4-1.8-2.3-2.8-5.1-2.8-8.6v-.9c0-3.4.9-6.3 2.8-8.5 1.8-2.3 4.5-3.4 8-3.4 1.9 0 3.6.3 5.2 1 1.5.6 2.8 1.5 3.8 2.6l.2 5.3h-3.5l-1-3.8c-.5-.5-1.2-.9-2-1.2-.8-.3-1.7-.5-2.7-.5-2.3 0-3.9.8-4.9 2.5-1 1.6-1.5 3.7-1.5 6.1v.9c0 2.5.5 4.5 1.5 6.1 1.2 1.6 2.8 2.4 5.1 2.4z"/></g><g fill="#FFF"><path d="M238.5 148.6h-1.6v-10.3h4.8c.6 0 1.1.1 1.6.3.5.2.9.4 1.2.7.3.3.6.7.8 1.1.2.4.3.9.3 1.4 0 .6-.1 1.2-.3 1.6-.2.4-.5.7-.8 1-.3.3-.7.5-1.1.7l2.1 3.7h-1.6l-1.9-3.4h-3.3v3.2zm4.1-5c.3-.1.5-.3.7-.4.2-.2.4-.4.5-.7.1-.3.2-.5.2-.8 0-.3-.1-.6-.2-.8-.1-.3-.3-.5-.5-.6-.2-.2-.4-.3-.7-.4-.3-.1-.6-.1-.9-.1h-3.2v4.1h3.2c.3-.1.7-.2.9-.3zM245.7 138.2h8.5v1.4h-3.5v8.9h-1.6v-8.9h-3.5v-1.4zM258 148.6v-10.3h7.4v1.4h-5.8v3.4h4.7v1.4h-4.7v4.1H258zM274.2 148.6h-7.6v-10.3h7.6v1.4h-6.1v3h4.8v1.4h-4.8v3.1h6.1v1.4zM281.4 145c-.2-.2-.4-.3-.7-.5-.3-.1-.6-.3-1-.4l-1.2-.3c-.4-.1-.8-.3-1.2-.4-.4-.1-.7-.3-1-.6-.3-.2-.5-.5-.7-.8-.2-.3-.3-.7-.3-1.2 0-.4.1-.8.3-1.2.2-.4.4-.7.8-1 .3-.3.7-.5 1.2-.7.5-.2 1-.3 1.6-.3.5 0 1 .1 1.5.2l1.2.6c.3.3.6.6.8.9.2.4.4.8.5 1.2l-1.6.2c-.1-.3-.2-.5-.3-.7-.1-.2-.3-.4-.5-.6-.2-.2-.4-.3-.7-.4-.3-.1-.6-.1-.9-.1-.3 0-.6 0-.9.1-.3.1-.5.2-.7.4l-.5.5c-.1.2-.2.4-.2.6 0 .3.1.5.3.7.2.2.4.4.7.5.3.1.6.3 1 .4l1.2.3c.4.1.8.3 1.2.4.4.1.7.3 1 .5.3.2.5.5.7.8.2.3.3.7.3 1.2 0 .4-.1.9-.3 1.3-.2.4-.5.8-.8 1-.4.3-.8.5-1.3.7-.5.2-1.1.3-1.7.3-.6 0-1.2-.1-1.6-.2-.5-.2-.9-.4-1.2-.7-.4-.3-.6-.6-.9-1-.3-.4-.4-.8-.6-1.3l1.6-.2c.1.3.2.5.4.8.2.3.4.5.6.6.2.2.5.3.8.4.3.1.7.2 1 .2.4 0 .7-.1 1-.2.3-.1.6-.3.8-.4.2-.2.4-.4.5-.6.1-.2.2-.5.2-.7-.1.1-.2-.1-.4-.3zM283.4 138.2h8.5v1.4h-3.5v8.9h-1.5v-8.9h-3.5v-1.4z"/></g><path fill="#FFF" d="M233.2 138.2h-2.4v1.4h1.1l1.2 5.1h-2.3v1.4h2.7l.6 2.5h1.6z"/></svg>