<svg xmlns="http://www.w3.org/2000/svg" xml:space="preserve" viewBox="3.974 2.631 422.904 219.221" y="0" x="0" id="Слой_1" preserveAspectRatio="xMidYMid meet"><style>.st0{fill:#fff}</style><g id="053a2f28-df4f-4fbf-af10-5db450337450"><g transform="translate(185.007 1.872)" id="96b8e699-fb14-4706-a7b0-a3e1e7072991"><path d="M94.5 91.3c-.9.5-1.7.9-2.6 1.4-.3.1-.5.2-.8.2-1.4.7-2.8 1.3-4.2 1.9-1.5.7-3.1 1.2-4.7 1.7-.1.1-.3.2-.5.2h-.2c-.1 0-.1 0-.2.1h-.1c-2.9 1.2-6.2 2-9.2 1.7-1.9.2-3.8-.1-5.6-.5-1.9-.2-3.8-.6-5.7-1.2-7.7-2.4-15.9-6.5-20.9-13.2-4.6-6.1-6.8-14.1-8.1-21.7-1.4-7.6-.6-15.5 2-22.7.3-.7.5-1.5.9-2.2 1.1-3.1 2.6-6.1 4.8-8.6 1.3-1.5 2.7-2.8 4.2-4.1l2.4-2.1c1.1-.9 2.2-1.9 3.4-2.6-.9-1.7-1.6-3.5-1.5-5.5-.2-1.9.3-3.4 2.5-3.6.5 0 1 .1 1.5.3.8.6 1.6 1.6 2.2 2.6.4 1 .7 2 1 3 0 .1.1.2.2.3.2-.2.4-.3.7-.4v-.1c1.4-.7 2.7-1.8 4.2-2.5 1.6-.8 3.7-1.1 5.3-1.5 3.3-.9 6.8-1.1 10.2-.7 3.4.5 6.3.9 9.5 2.2 1.3.5 3.1 1.1 4.6 2 .4.2.9.4 1.2.7 1-1.9 2.5-3.6 4.1-5 2.4-2 5.3-.3 5.6 0 .6.9.7 2.4.1 3.7-.1.3-.3.7-.4 1.1-.8 1.4-1.7 2.7-2.4 3.8 11.1 8.8 16.8 26.2 15.5 40.4-.7 7.2-4 14.5-7.8 20.4-2.1 3.2-4.7 5.8-7.5 7.9-1.3 1-2.5 1.8-3.7 2.6m.1 10.6c-.1 2.1-1.4 3.9-2.5 5.5l-1.5 2.4c-.1.2-.2.5-.3.9-.8-.5-1.7-.8-2.5-1.1-.9-.3-2.8-.6-3.3-1.6.1-.5.3-1 .5-1.4.9-3.3.3-6.7-1.9-8.5 1.7-.5 3.4-1.1 5-1.8.3-.1.6-.2.9-.4 3.1 0 5.9 2.2 5.6 6m14 9.5c.7.5 2.3 1.3 3 1.8l-.9-.3c-2.9 2-4.4 4.6-6.4 7.5-5.6-3.8-13.9-3.2-20.5-1.8 1.9-.1 3.7.1 5.6.2 2.6.1 5.3.3 7.8 1 1.8.3 3.6.9 5.1 1.9 0 .1 0 .2.1.3-.2 3.2-1.2 6.4-.9 9.6-9.8-2.2-20-.9-29.9-.1-11.3.9-22.5 2.4-33.3 6-8.3-3.9-17.4-7.2-26.2-9 .1 0 .1-.1.1-.2.1-1.9.3-2.4-.1-4.3 4.3 1.5 8.7 2.9 13.2 4.2-.8-.5-1.7-1-2.5-1.5-1.7-1-8.5-3.9-10.1-4.4-7.3 1.4-14.7 2.4-21.7 5.2-.2.1-.3.1-.5.1h-.2c-.1 0-.1 0-.2-.1 0 0-.1 0-.1-.1-3.9-1.7-8-3.2-11.9-4.8-3.4-1.4-6.5-3.5-10-4.8.9-1 1.8-1.9 2.9-2.7.9.5 1.8.9 2.9 1.1 1.7.3 3.5.1 5.3.3 2.6.3 5.1 1.1 7.6 1.4h.1c.7.3 1.3.7 2 .9.2.3.6.5.9.5.4 0 .8-.4 1.1-.6.9-.6 1.7-1.2 2.5-1.9 1.3-1.1 2.6-2.3 3.7-3.5h.2c.7.3 1.4.6 2.1.8 1.8-1.4 3.8-2.4 5.7-3.3 2.1-.9 4.3-1.9 6.6-2.3 4.6-1.9 9.7.2 14.5 2.7 1.2.6 2.3 1.1 3.5 1.7 3.8 1.5 7.7 2.6 11.7 3.2 1.2.2 2.4.3 3.5.4-7.5-2.2-14.6-5.7-21.6-9.1 2.1-1.3 4.2-2.6 6.4-3.9l.3.3c4.5 4.3 10.6 6 16.5 6.2 4.7.2 9-1.3 13.6.1 3.9 1.2 7.5 3.4 11.3 5 2.2-.5 4.4-.7 6.5-1.6 1.4-.6 2.7-1.3 4.1-2 .3-.2.7-.5 1-.7.1-.1.2-.1.3-.2.3-.4.6-.8.8-1.3.5.5 1.2 1 1.8 1.2 1.4.7 3.3.8 4.7 1.5 1.5-1.6 3.3-2.9 4.6-4.7 4.5.1 9.1 2 13.4 4.1m.8 15.8c-1.3.6-3.8 2.9-5.1 3.5.1-2.7.8-5.5 1-8.2 1-1.6 3.7-4.9 5-6.2-.4 1.3-1 9.7-.9 10.9M-.9 130.7c-2.6.6-6.8 2.1-9.2 3.3 0-.2.1-.5.1-.7.1-.7.2-1.5.2-2.2l.3-.9c3.6-1.8 8.9-2.8 12.8-3.6 1.5-.3 3.1-.7 4.6-1 .5-.1 2.2-.7 2.8-.9v.6c0 .8.2 2.6.2 3.4-3.6.3-8.4 1.1-11.8 2m-10.6 1.9c-.1.4-.1.8-.2 1.2-.5-.3-.9-.6-1.4-.8-2.4-1.2-5-2.2-7.6-3.1-2.6-1-5.2-2-7.8-3.2-1.2-.5-2.3-1.1-3.5-1.5-.8-.3-1.6-.5-2.3-.8-.1-1.3 0-2.6 0-4 3.9 1.1 7.7 2.4 11.4 3.9 4 1.7 8.6 3.4 11.7 6-.1.9-.1 1.6-.3 2.3m3-36.1c-1.3-.5-2.7-.4-4.1-.2-1.3.1-4.4.7-4.2-1.7.1-1 .8-1.9 1.3-2.7 2.2-3.2 5.7-5.4 8.7-7.7 3.5-2.7 6.6-5.8 8.8-9.8.6-1.1 1.2-2.3 1.8-3.6 2.3.6 4.4 1.7 6.4 3.1-.2 2.3-3.1 4.4-4.6 5.6C3.3 81.3.8 83-1.5 84.8c-3 2.4-7.4 7.3-7 11.7m15.1 9c-1.5 2.9-4.7 4.6-6.6 7.2 0-.1-.1-.1-.2-.2-.8-.7-1-2-1.4-2.9.4-2 .4-4.1-.1-5.9-.6-2.1-1.9-3.8-3.5-5.1 2.1-2.6 4.4-2 6-.2 1.8-1.5 4.7-.5 5.6 1.8.7 1.5.7 3.5.2 5.3M1.5 94.7c-2.1-1.3-4-.7-6.1.3.5-6.9 17.8-17.5 17.7-16.5 3.3 2.9 4 2.1 6 5.8.1.5 2 5.7 2.1 6.2 1.3 5.2 3.1 9.3 6.2 11.1-2.5 1.5-8.2 3.5-8.3 3.9-2.7-1.3-6.4-1-9.4-.4.1-1.8.9-12.2-8.2-10.4m-35.9 4.2c-1-3.8-1-7.8-1.4-11.7 5.5-.8 8.5-9.1 9.5-14 1-4.6-1.5-9.1-3.4-13-2.5-5.4-3.7-11.6-3.3-17.6.8-11.6 13.2-21.7 23.6-21.8 5.9-.1 9.4 1.8 14.1 5.5 3.8 2.9 8.2 8 12 10.8 3.9 3 9 4.8 13.3 4.3-1.2 3.7-1.9 7.6-2 11.6-.5 13.8 4.7 30.7 16.2 38.4 6.4 4.3 14.1 7.5 21.6 8.4 4.5.6 9.2.1 13.6-.9.1 0 .2.1.3.1 3.6.3 2.8 5.7 1.9 8.2 0 .1-.1.1-.1.2-2.3 3.2-6.2 4.2-9.6 5.7-.1-.1-.1-.2-.2-.3-3-1.3-5.8-2.8-8.8-4-3.7-1.4-7.3-1.3-11.2-.9-7.1.9-14-.6-19.6-5.5-4.9-4.3-7.3-10.6-8.9-16.9-.6-2.2-1-4.5-1.7-6.7-.2-.4-.3-.8-.5-1.2-1.6-3.3-3.9-8.5-7.7-9.5 0 .1 0 .3.1.4 2.6 2.9 4 6.5 5.1 10.3-3.8-4.5-8.8-8.1-14.3-9.4 2.2-5.2 3.2-11.4.4-16.3.3 2.3.3 4.7-.2 7-.4 1.5-.9 2.9-1.5 4.3-1 3.8-3 7.6-4.8 10.4C-6 81.3-13.5 84.1-18 90.2c-4 5.3 1.6 8.8 6.4 8.3 1.6-.1 2.9 0 4 .5.1 0 .2.1.3.1.1 0 .2.1.2.2.3.2.5.4.9.6.3.1.5.4.6.7.5.6.9 1.4 1.3 2.3.7 1.9.5 3.9-.1 5.8-.8 3-2.9 5.1-4.9 7.2-.5.5-1.1.6-1.6.3-.8-.1-1.6-.3-2.4-.7-3.1-.5-6.1-1.4-9.3-1.5-1.8-.1-3.3 0-4.9-1-.2-.3-.6-.7-1-.9-1.1-1.2-1.9-2.9-2.6-4.3-1.5-2.7-2.5-5.8-3.3-8.9M-39 35.1c.6-8.4 5.2-16.4 12.1-20.7 6-3.7 12.9-5.1 19.5-3.8 3.8.8 8 3.3 11.4 5.2 3.8 2.1 6.4 5.5 9.4 8.6 0 .1.1.3.1.4.3.1.6.3.7.6.1 0 .2.1.2.1 4.7 4.4 10.8 7.5 16.1 2.1 4-4.1 4.7-11.1 0-14.8-3.8-2.9-9.5-1.7-11.6 2.7-1.9 4.1 2.7 10.7 6.3 6.2 1-1.3.6-3-.5-3.8-.1 1-.3 2.1-1.3 2.5-.4.2-.8.2-1.3.2-.5.1-1 0-1.4-.4-2.4-3.2 2.1-5.8 4.7-6.2 1.6-.2 3.6-.2 4.7 1.2.2.2.3.4.5.7.1.2.3.3.4.5 2.1 3.2-1.1 7.8-3.3 9.8-2.1 1.8-4.4 1.8-6.7 1-3.7-.8-7.1-3.9-7.4-7.8-.5-6.3 3.5-12.8 9.4-14.2 5.3-1.3 11.4.5 14.5 5.5 1.7 2.8 2.6 6 2.5 9.1 0 5.1-2.9 9-4.4 10.5-3.4 3.6-10 7.8-14.9 5.5-2.8-.8-5.4-3.3-7.3-5.2-1.5-1.5-2.8-3.1-4.2-4.6-2.1-2.1-7.3-6.7-15-7.6-10.3-1.2-19.4 4.7-25.6 12.9-4.7 6.2-5.3 14-3.9 21.4-2.5-5.4-4.2-11-3.7-17.6m154.4 33.4c4.4-16.3 1.8-37.6-13.6-49.5.2-.4.8-2.2 1.3-4.1.5-1.8.5-3.9-1.4-5.7-6.3-4.6-11.2 3.1-11.4 3.2-.3 0-16-10.1-33.7-.2-2.3-4.6-6.9-4.1-7.4-4-4.3.6-5 6.7-3 10.9-.8.5-.8.5-2.1 1.7.1-2.5-.3-5-1.2-7.4C41 8.2 36.4 3.1 31.1 1.3 25.7-.5 17.3 2.4 13.6 7c-3 3.7-3.3 6.9-2.7 11.6-1-1.1 0 0-1-1C7.6 15.4 1.5 6.2-15.1 6c-10.9-.2-19.7 6.3-24.4 16.8-2.8 6.2-2.4 14.5-1.1 21.2 1.2 6.4 2.3 11.4 5.8 16.6 1.9 4.5 5.4 7.6 4 12.8-.7 2.7-4 11.1-7.6 10.9-1.6 6.7-1.1 13.1 2.1 22 1.5 5.5 4.3 6.2 4.9 6.8-1.4 1.1-5 1.7-6.2 3.1-.1 1.8.5 8.9.4 10 0 .1 21.6 7.8 25.6 10.1 2.2-1 21.4-5 22.9-4.7 0 0 25.1 8.8 26.4 9.8.1.1.3.2.4.2 3.8-2.1 44.6-11.8 65.2-5.9.4-.3 5.9-4.4 8-5.2-.4-3.2 1.3-15.7 1.8-18.7-1.2-1-8.6-7.2-15.6-7.5.3-.5.9-7.1-2.8-9.7 4-1.4 16.6-10.8 20.7-26.1" class="st0" id="d0870e43-c602-4a73-bffb-df75f368fcdb"/></g><g transform="translate(312.163 30.616)" id="79d9cc49-7a16-429a-a5df-ebe92123f5c4"><path d="M-42.7.4c-1 0-1.9-.3-2.8-.5-.5-.1-1.5-.7-1.6-1.8-.1 0-.1 0-.1-.1.7-1.4 2.2-2.2 4.5-2.3 2.1-.1 4.2 1.2 6.3 2C-38.2-.7-41.3.4-42.7.4m-26.5-1.8C-65.3-3.7-58-5.5-57.6-.3c-3.9 3.1-9.1 1.1-11.6-1.1m32.6-2.7c-1.6-.9-3.7-1.8-5.5-1.8-2.6-.1-5 .3-6.9 2v.4c0 1.9.2 3.8.5 5.7.3 2.5.3 5.9-.8 8.4l-.1.1c-.5 1.3-1.7 2-3 2.1-.7.2-1.5.1-2.1-.3-.2-.2-.3-.4-.5-.6-.9-1.6-1-3.6-1.1-5.4-.1-2.9.5-7-.6-9.8-1.5-1.3-2.7-1.7-4.7-1.8-1.5-.1-3.5.4-4.9.8-.1.1-.3.2-.4.2-.9.3-1.8.7-2.7 1.1-.7.4-1.3.8-1.9 1.2v.3c.6.5 1.1 1.1 1.7 1.7l.2.2c3.4 2 7.6 2.8 11.6 2.3-.5 4-.8 9.4 3.3 11.3 1 .5 1.9.5 2.8.4.3 0 .7-.1 1-.2 1.5-.4 2.4-1.6 2.9-3.1.7-1.2.8-2.5.7-3.8.1-.7.1-1.4.1-2 0-1.5-.1-3-.3-4.5.6.4 1.3.7 1.9.9.7.2 1.4.3 2.1.4h.1c.1-.1.3-.1.4-.1.2 0 .5-.1.7-.1 2.8-.7 5.3-2 7.5-3.9-.5-.9-1.2-1.6-2-2.1" class="st0" id="5fa18cee-01ec-4873-b568-55d6209bb1fc"/></g><g transform="translate(320.415 51.371)" id="4253681f-ba3b-40bd-9843-f0dc547b5476"><path d="M-71.8-11C-67-4.2-58.2.4-50.3-9.8c.4.4.9.8 1.3 1.1l.1.1c-6.6 11-18.9 7-24.4-.2.5-.7 1-1.5 1.5-2.2" class="st0" id="42ee9e36-22d8-4232-8166-5c186ed744d1"/></g><g transform="translate(281.924 39.903)" id="003c239d-f76c-4497-8ca3-c983889f1713"><path d="M-53.4-3.4C-55.3-1-56.1 1.7-57 4.7c-.7 2.2-2.3 8.2-4.9 10.5-.6.7-1.6 1-2.5.9.8.6 1.5.9 2.2 1 2.9-.4 4.6-3.1 5.8-6.1.9-3.3 1.8-6.7 3.1-9.8 1.4-3.1 3.3-5.7 5.7-7.9.5-.5 1-1 1.6-1.4-2.8.8-5.5 2.3-7.4 4.7" class="st0" id="138d23d2-b16c-442b-9d39-b2c0c7f98984"/></g><g transform="translate(291.85 60.99)" id="fb6091a8-f94f-4b49-a75f-3d6614467d15"><path d="M-55.5-12.3l.3-.9c-4.9 4.6-6.2 10.6-6.1 17.4 0 2.8.4 8.8-1.3 12-.2.9-.6 1.7-1.1 2.5-.8 1.2-1.9 1.9-3.1 2.2.3.1.6.2.9.2 5.8 0 7.6-5.4 8-10.7.3-3 .2-6 .3-8.8-.2-3.7-.2-7.3.8-10.9.3-.9.7-2.1 1.3-3" class="st0" id="9f23131a-1421-4b47-ac16-6182761e0112"/></g><g transform="translate(313.234 79.244)" id="d6bdf1f0-1d80-4648-937d-282e1be3a3c0"><path d="M-67.8 3.7c-.4-3.1-1.1-6.1-.8-9.2 0-.4.1-.9.2-1.3.1-3.8.9-7.6 2.9-10.7-1 1.2-1.9 2.4-2.8 3.7-2.1 4.4-3.7 8.9-3.1 14 .3 2.7.8 5.4 1 8.1.1 1.1.3 4.7-.3 6.2-.1.6-.4 1.2-.9 1.7h-.1c.2 0 .5-.1.8-.3 4.5-2.3 3.6-7.8 3.1-12.2" class="st0" id="d48819e3-0f8e-4d20-901a-244f7593954a"/></g><g transform="translate(367.97 39.186)" id="3354b769-751f-4540-ba56-0c500e82a876"><path d="M-74.9 10.4c-2.4-2-3.8-7.5-4.4-9.4-.8-2.6-1.5-5.1-3.3-7.3-.4-.7-1-1.2-1.7-1.7.3.8.5 1.6.8 2.5.5 1.3.8 2.7 1.2 4.1 1.1 2.6 1.8 5.4 2.5 8.2 1.1 2.7 2.6 5.1 5.2 5.5.6-.1 1.3-.4 2-.9-.8 0-1.7-.3-2.3-1" class="st0" id="dcd3d531-94a4-4e34-9d74-2b11997a3582"/></g><g transform="translate(363.102 58.644)" id="07681c4c-5010-4f28-85a1-1c5ad6d6475e"><path d="M-82.8-11.8c-.1-.3-.2-.5-.3-.8 4.7 4 6.1 9.5 6.3 15.8.1 2.6-.1 8.1 1.7 11.1.2.8.6 1.6 1.1 2.2.8 1.1 1.9 1.7 3 1.9-.2.1-.5.2-.8.2-5.4.2-7.2-4.7-7.8-9.5-.4-2.7-.4-5.5-.6-8.1.1-3.4-.1-6.8-1.2-10-.4-.9-.8-2-1.4-2.8" class="st0" id="66e1ec2a-a7c5-450e-8f37-408ed27516f4"/></g><g transform="translate(350.509 77.051)" id="f8bf0b99-dd43-4da3-a425-5c5ef969578c"><path d="M-77.9 4.2c.4-3 1.1-6.1.8-9.2-.1-.5-.1-.9-.2-1.3-.1-3.8-.9-7.6-2.9-10.7 1 1.2 1.9 2.4 2.7 3.7 2.1 4.4 3.7 8.9 3.1 14-.3 2.7-.8 5.4-1 8.1-.1 1.1-.3 4.7.3 6.2.1.6.4 1.2.9 1.7l.1.1c-.2-.1-.5-.2-.8-.3-4.4-2.4-3.5-7.9-3-12.3" class="st0" id="5de98393-5213-4e82-bd79-919cca934585"/></g><g transform="translate(331.713 80.12)" id="aaf1e24d-c202-4d15-b291-c5b61fa0362b"><path d="M-70.7-4.1v-1.7c0-.3.1-.6.2-.8-.1-2.3-.5-4.4-1.1-6.4-.2-.4-.4-.9-.6-1.3-.5-1-1.5-2.3-2.6-3.3 3.6 7.1-.2 16.3-.9 23.8-.3 3.7.3 7.8 3 10.3-.3-1.2-.3-2.4-.3-3.6-.3-4 1.2-10.3 1.5-12 .3-1.7.6-3.3.8-5" class="st0" id="e17d34e5-a227-4b82-bc51-895d3641bb69"/></g><g transform="translate(3.174 208.052)" id="9b17ab9b-b69e-4994-b0f6-9f10f1ab1710"><path d="M406 9.9c-2.3 0-5.3-.3-7.8-.7v-25.8h6.1c6.9 0 12.6 3.3 12.6 12.9 0 8.7-4 13.6-10.9 13.6m-7.9-51.6c2.7-.5 4.5-.7 6.7-.7 5.7 0 10 2.9 10 10.4 0 7.6-4.8 12.5-10.5 12.5h-6.1v-22.2zm9.6 23.5v-.3c7.5-.6 14.1-5.9 14.1-14.4 0-8.6-5.7-12-14.9-12h-21.1v3l4.9.3c.6.1.8.3.8 1.2V8.2c0 .6-.3 1-.8 1.1l-5 .6v3h20c9.4 0 18-5.3 18-16.2.2-10.6-6.8-14.1-16-14.9m-31-10.7l2.9-16.1h-37.4v3.1l4.9.4c.4 0 .8.3.8 1v49c0 .5-.3 1-.8 1l-5 .2v3.1h35.5V-4.9H375l-1.9 13.3c-.1.8-.7 1.4-1.5 1.4L354.4 9v-24.4h6.9c3.4 0 4.4 4.5 4.4 10.2h2.5v-23.4h-2.7c0 5.3-.8 10.2-4.2 10.2h-7v-22.8l19-.7c.5 0 .7.2.7.9v12.2h2.7zM297.2-42c.9 0 7.3 0 7.3 3.9 0 1.7-.5 12.9-1.3 22.8-1.2 14.8-4.1 23.7-7.1 23.7-.6 0-1-.1-1.3-.2l-1.1-.9c-.1-.3-.1-.7-.2-1-.9-4-6.3-7.2-7.9-7.6l-1.3 1.1c2.4 4.2 2.3 13.7 2.3 13.7h6.2s.1-.1.1-.2c.5.1 1 .2 1.6.2 4.5 0 10.7-2.8 12.3-29.3l1.5-25.9h13.8V8.4c0 .5-.4 1-.9 1l-4.8.4v3h18v-3l-4.9-.4c-.6-.1-1-.5-1-1v-49c0-.7.3-1.1.9-1.1l4.9-.3v-3H297v3zM255.8 9.1c-.6 0-.9-.3-.9-.9 0-.2.1-.5.1-.8l9.5-32.9h-6.1c-5.1 10.4-16.1 34.3-22.1 34.3-1.3 0-2.3-1-2.3-2.7 0-4 2.1-8.6 4.6-14 3.4-7.7 5.4-12.5 5.4-17.5h-11.4l-.8 2.7 4.3.7c.6.2.8.8.8 2 0 2.7-2 7-4 11.2-2.6 5.6-5.3 11.5-5.3 16.3 0 4.2 2.7 6.3 6 6.3 9.2 0 18.2-21.3 23.6-32.5l.7.2c-3.4 9.1-9.5 24.5-9.5 28.3 0 2.1.9 3.9 3.8 3.9 6.5 0 11.8-8 13.2-12L263.5.6c-2.5 5.5-5.9 8.5-7.7 8.5m-70.2-32.7l5.1-14.8c.7-2.1 1.8-3.2 2.9-3.2.1 0 .3 0 .6-.1 0 .9.1 2 .4 3.3.9 4 6.3 7.2 8 7.6l1.3-1.1c-2.4-4.2-2.3-13.7-2.3-13.7h-6.3c-3.5.2-5.8 1.8-7.2 5.9l-5.2 15.1c-1.2 3.5-3.1 4.9-5.8 4.9h-5.7V-40c0-.6.3-1 .8-1.1l4.8-.8v-3h-18v3l4.9.8c.6.1.8.6.8 1.1V7.8c0 .6-.3 1.1-.9 1.2l-4.8.8v3h18v-3l-4.9-.8c-.6-.1-.8-.6-.8-1.2v-24.5h8.4c3.6 0 7.2 1.4 7.7 5.8L189 7.9c.4 4.5 3.3 5.7 6.7 5.7 3.1 0 6.3-1.6 7.4-2.9l-1-2.7c-.7.7-2.2 1.2-3.4 1.2-1.6 0-3-.8-3.2-3.5l-1.6-16.8c-.6-7.2-6-7.9-11.3-8v-.3c1.4-.8 2.3-2.2 3-4.2m-47.9 9.3c-2.9 0-5.5-.3-8.4-1.6v-25.4s3.6-1 6.7-1c8.7 0 12.7 4.5 12.7 14.2.1 9.6-5.8 13.8-11 13.8m.7-30.7h-21.3v3l4.8.4c.4.1.9.5.9 1.1V7.9c0 .6-.3 1.1-1 1.2l-4.8.6v3.1h18.5V9.7l-5.5-.6c-.5-.1-.8-.6-.8-1.2v-20.7c3.5 1.2 6.5 1.5 9.1 1.5 7 0 17.3-5 17.3-17.3.2-12.2-7.4-16.4-17.2-16.4M78.9-9.1l7.8-25.2 7.2 25.2h-15zm26.8 17.3L89.3-47.3h-1.5L71 7.3c-.3 1-.9 2-1.8 2.1l-5.2.4v3.1h15.2V9.7l-4.4-.3c-.8 0-1.1-.3-1.1-.8 0-.4.4-1.6.6-2.2L78-5.9h16.7l3.7 13.1c.2.7.3 1.1.3 1.4 0 .5-.3.7-.7.7l-4.9.4v3.1h19V9.7l-5.5-.6c-.4 0-.8-.4-.9-.9M30 2.3L15.2-45H.8v3l4.8.3c.6.1.9.3.9 1v49c0 .5-.2 1-.8 1l-4.9.5v3h14.9v-3l-4.8-.5c-.5 0-.8-.4-.8-1v-46.1l.2-.1 16.5 51.4h3L46.6-37l.3.1V8.4c0 .8-.4 1-.9 1l-4.9.4v3h18v-3l-4.9-.4c-.6 0-.8-.5-.8-1v-49c0-.7.3-1 .8-1l4.9-.3v-3H45.7L30 2.3z" class="st0" id="b20d8890-fdc3-47df-a166-bfba3ed74a85"/></g></g></svg>