<svg xmlns="http://www.w3.org/2000/svg" viewBox="0 0 289.7 79.4"><path d="M289.7.4V.2h-5.4c-6.7 0-13.4 4.8-13.4 14 0 5.7 2.4 9.3 4.5 11.2 1.5 1.4 3.2 2.5 5.1 3.1l-22.4 45L219.8 0h-2.7l-35 73.1-38-73.1h-2.7l-35.1 73.5L68 0h-2.7L33.7 66.1V0h-6.4v27.7H6.4V0H0v79.4h6.4V34.1h20.9v45.3H34.5l21.6-45.3h22.4l23.6 45.3h8.4l21.6-45.3h22.4l23.6 45.3h84.1l21-42.3v42.3h6.4l.1-79zM59.2 27.7l7.7-16.1 8.4 16.1H59.2zm76 0l7.7-16.1 8.4 16.1h-16.1zM189.3 73l29.3-61.4 32 61.4h-61.3zm94-50.3c-1.3-.3-2.6-.9-3.6-1.9-1.6-1.6-2.5-3.9-2.5-6.6 0-5.3 3.5-7.2 6.1-7.5v16z" fill="#FFF"/></svg>