<svg xmlns="http://www.w3.org/2000/svg" viewBox="3.3 6.01 163.3 152.89" style="box-shadow:none;border-radius:0" fill="#fff"><path d="M105.1 64.5c-.3 1.9-.9 3.9-1.8 5.8-.1-.3-.1-.6-.2-.8-2.7-9.6-11.4-16.5-21.6-17.2-8.3-.6-16.1 2.8-22.5 9.5-8.5-10.2-8.7-19.2-7.2-25.2 2-8.2 8.4-15 16.2-17.4 6.3-2 12.7-1.6 18.5.9 14.4 6.5 22 24.7 18.6 44.4M80.4 93.2c-7 3.4-15.2 5.7-24.6 6l5-19.1c4.9-10.6 12-16.4 19.7-15.9 5.2.4 9.7 3.8 11 8.6 1.9 6.4-2.1 13.8-11.1 20.4m59.5-65.4c-4.9 2.3-10 4-15 5-2.5.5-5.1.9-7.6 1-1.1.1-2.3.1-3.4.1-4.4-11.1-12.2-20-22.6-24.7C82.8 5.5 73.5 5 64.4 7.8c-11.7 3.6-21.2 13.8-24.2 25.9-3.2 12.6.7 25.7 10.8 37.1l-10.4 39.5 7.1.5c22.1 1.7 37.9-6 47.2-12.6 11.6-8.3 19.8-20.2 21.8-31.7 1.1-6.3 1.3-12.5.6-18.4.8-.2 1.7-.5 2.5-.7 3-.9 6-2.1 8.8-3.4 5.6-2.6 10.7-5.9 15.4-9.6 9.4-7.4 16.7-16.5 22.6-26.3-7.8 8.3-16.9 15.1-26.7 19.7"/><path d="M82.1 26.7c-3.4 0-6.1 2.7-6.1 6.1 0 3.4 2.7 6.1 6.1 6.1 3.4 0 6.1-2.7 6.1-6.1-.1-3.4-2.8-6.1-6.1-6.1M15.3 145.9c.9 0 1.6-.2 2.4-.5.7-.3 1.4-.8 1.9-1.5s1-1.5 1.3-2.5c.3-1 .5-2.2.5-3.6 0-2.8-.6-4.8-1.7-6.1-1.1-1.3-2.6-2-4.3-2h-2.3V146h2.2zm-2.4 1v10.3l2.6.6v.6H3.3v-.6l2.6-.6v-27.4l-2.6-.6v-.6h12c2.5 0 4.5.2 6.2.6 1.7.4 3.1 1 4.1 1.8 1 .8 1.8 1.8 2.2 2.9.5 1.1.7 2.4.7 3.9s-.2 2.7-.7 3.9c-.5 1.1-1.2 2.1-2.2 2.9-1 .8-2.4 1.4-4.1 1.8-1.7.4-3.8.6-6.2.6h-2.4zM36.1 137.1c2.6 0 3.9 1.3 3.9 3.8v16.3l2.6.6v.6h-12v-.6l2.6-.6v-18.8l-2.6-.6v-.6h5.5zM109.2 137.1c2.6 0 3.9 1.3 3.9 3.8v16.3l2.6.6v.6h-12v-.6l2.6-.6v-18.8l-2.6-.6v-.6h5.5zM51.6 128.5c2.6 0 3.8 1.3 3.8 3.8v24.8l2.6.6v.6H46v-.6l2.6-.6v-27.4l-2.6-.6v-.6h5.6zM66.1 128.5c2.6 0 3.8 1.3 3.8 3.8v24.8l2.6.6v.6h-12v-.6l2.6-.6v-27.4l-2.6-.6v-.6h5.6zM85.1 143.3v14.1h2.8c1.7 0 3.1-.6 4.3-1.8 1.1-1.2 1.7-3 1.7-5.2 0-2.3-.6-4-1.7-5.2-1.1-1.2-2.6-1.8-4.3-1.8h-2.8zm0-1.1H87c.7 0 1.4-.2 2-.4.7-.3 1.2-.7 1.7-1.3.5-.6.9-1.2 1.2-2 .3-.7.4-1.6.4-2.5 0-1-.2-1.8-.4-2.6-.3-.8-.7-1.5-1.2-2-.5-.6-1.1-1-1.7-1.3-.7-.3-1.3-.5-2-.5h-1.9v12.6zm5.2.7c2 .1 3.8.4 5.4.9.7.2 1.4.5 2 .9.7.4 1.2.8 1.8 1.4.5.5.9 1.1 1.2 1.8.3.7.5 1.5.5 2.5 0 1.2-.2 2.3-.7 3.3-.5 1-1.2 1.9-2.2 2.6-1 .7-2.4 1.3-4.1 1.7-1.7.4-3.8.6-6.2.6H75.5v-.6l2.6-.6V130l-2.6-.6v-.6h11.6c2.3 0 4.3.2 5.9.6 1.6.4 2.9.9 3.9 1.6 1 .7 1.7 1.5 2.2 2.4.5.9.7 1.9.7 2.9 0 .8-.1 1.6-.4 2.2-.3.6-.6 1.2-1.1 1.7-.4.5-.9.9-1.5 1.2-.6.3-1.1.6-1.7.8-1.4.5-2.9.8-4.7.8v-.1zM133.8 138c-.9 0-1.6.2-2.3.5-.7.4-1.2.7-1.7 1.2s-1 1.1-1.4 1.7v15.8l2.6.6v.6h-12v-.6l2.6-.6v-18.8l-2.6-.6v-.6h3.9c1 0 1.8.2 2.5.5.6.3 1.2.7 1.5 1.1.4.5.7 1 .9 1.6.4-.6.9-1.2 1.6-1.7.5-.4 1.2-.8 2-1.2.8-.4 1.7-.5 2.8-.5 1.5 0 2.7.4 3.4 1.1.7.7 1.1 1.7 1.1 3 0 1-.3 1.7-.9 2.3-.6.6-1.4.9-2.3.9h-.7c-.2 0-.4 0-.5-.1-.2 0-.4-.1-.5-.1V138zM154.7 139.5c-.3-.3-.6-.6-1-.9-.3-.2-.7-.4-1-.6-.4-.2-.8-.3-1.2-.3-.5 0-1 .1-1.5.4-.5.3-.9.8-1.2 1.5-.3.7-.6 1.7-.8 3.1-.2 1.3-.3 3-.3 5.1 0 2 .1 3.7.3 5 .2 1.3.4 2.3.7 3 .3.7.6 1.2 1 1.5.4.3.8.4 1.1.4.7 0 1.2-.2 1.7-.5.5-.4.9-.7 1.2-1.2.4-.5.7-1.1 1-1.7v-14.8zm3-11c2.6 0 3.8 1.3 3.8 3.8v24.8l2.6.6v.6h-3.8c-1 0-1.9-.2-2.5-.5-.6-.3-1.1-.7-1.5-1.1-.4-.5-.7-1-.9-1.6-.4.7-.8 1.4-1.4 1.9-.5.5-1.1.9-1.9 1.3-.8.4-1.8.6-2.9.6-1.2 0-2.4-.2-3.4-.7-1.1-.5-2-1.2-2.8-2.1-.8-.9-1.4-2.1-1.9-3.5s-.7-3.1-.7-4.9c0-1.9.2-3.5.7-4.9.5-1.4 1.1-2.6 1.9-3.5.8-.9 1.8-1.7 3-2.1 1.2-.5 2.4-.7 3.8-.7.7 0 1.4.1 2 .3.6.2 1.1.4 1.6.6.5.3 1 .5 1.3.9V130l-2.6-.6v-.6h5.6zM34 128.5h-3.5v.6l1.8.4c-.1.3-.2.6-.2.9 0 1.1.9 2 2 2s2-.9 2-2c-.1-1-1-1.9-2.1-1.9M107.1 128.8h-3.5v.6l1.8.4c-.1.3-.2.6-.2.9 0 1.1.9 2 2 2s2-.9 2-2c-.1-1.1-1-1.9-2.1-1.9"/></svg>