<svg xmlns="http://www.w3.org/2000/svg" style="box-shadow:none;border-radius:0" viewBox="0.042 -0.024 2309.473 2505.224" fill="#fcfcfc"><path d="M12.4 1861.7c0-33.6-.9-67.3.2-100.9 1.4-42.7 4.2-85.4 6.6-128.1 1.7-30.7 3.6-61.3 5.6-91.9 1.2-17.9 3.1-35.7 3.8-53.6.4-10.8-1-21.8-1.4-32.6-.4-12-.9-24.1-.9-36.1.1-33.3.4-66.6.7-99.9 0-5.1-.3-10.3.2-15.4 2.8-24.3 6.6-39.8 41.5-40 29.9-.1 59.7-4.9 89.6-6.8 46.8-3 94.3-6 138.1 14 42.7 19.5 67.7 54.4 75.8 101.7 8.7 50.9-11.8 87.9-50.7 117.6-3.4 2.6-5.4 7-8 10.6 4 2.5 7.7 6.4 12.1 7.3 46.4 9.4 80.8 34.4 105.4 74.9 13.3 21.8 28.8 42.1 33.4 68.1 8.7 49.4-5.8 93.2-32.4 133.7-8.8 13.3-19.8 25.4-31.2 36.6-34.5 33.8-69.5 67-104.6 100.2-24.2 22.9-54.5 32.9-86.4 39-3.6.7-7.3 2.2-10.7 1.8-27.1-3.2-49.4 9.7-72.5 20.5-28.4 13.4-84.8 0-102.5-26-6.6-9.7-10.1-22.7-11.1-34.5-1.8-20-.5-40.2-.5-60.3-.2.1-.2.1-.1.1zm210.2-281.9c-7 .6-18.7 1.6-30.3 2.6-21.8 2-43.4 4.8-63.4 14.9-7.7 3.8-13.8 8.2-14.1 17.5-1.4 43.4-3.1 86.7-4.1 130.1-.6 25.5-.3 51-.1 76.5.1 15.8 6 21.9 21.9 22.2 9 .2 18.2-.6 27.1-2.3 26.7-5.1 52.5-13.5 73.8-30.6 22.5-18 44.1-37.3 64.8-57.4 26.7-26 44.8-57.1 51.2-94.6 5.2-30.7-6.5-52.2-35.5-63.1-27.9-10.4-56.9-14.9-91.3-15.8zm-19.4-254.2c-22.2 2.5-41.4 4.5-60.6 6.9-10.7 1.3-15.8 8-16.5 18.5-1.2 17.1-2.5 34.2-3.6 51.4-2 29.9-4.3 59.7-5.7 89.7-.2 4.4 3.1 11.7 6.4 12.9 6.9 2.4 15.5 3.6 22.5 1.7 47.7-13.1 93.9-29.7 132.1-62.7 14.6-12.6 29.6-25.4 30.6-47.2 1.2-27.5-21-55.1-51.7-62.2-18.5-4.4-37.4-6.4-53.5-9zM1330.5 1020c0-23.8.1-47.6-.1-71.4 0-4.7 0-10.2-2.3-13.8-2.2-3.4-7.9-7.4-11.4-6.8-44.2 7.3-88.2 15.7-132.4 23.2-10.9 1.9-15 7.6-14.8 17.9.7 35.9 1.4 71.7 1.9 107.6.1 9.5.9 19.1-.5 28.4-3.8 24.6-20.9 35.2-45.1 29.5-42-9.9-71.1-36.6-96-70.1-14.3-19.2-19.8-38.1-9.6-61 3.6-8.1 4.5-17.7 4.9-26.7 1.3-31 2.8-62.1 2.2-93.1-.5-25.5-4.7-51-5.5-76.5-.7-20.8 1.2-41.6 2.2-62.4 2.1-46 4.9-92 6-138 .3-12.4-4.3-24.9-6.7-37.4-.7-3.9-2.3-7.8-2.3-11.7.6-29 30.3-60.4 59.4-62 5-.3 11.8 3.1 15.1 7 8.9 10.9 16.6 23 24.4 34.8 5 7.5 8.6 16.3 14.6 22.9 25.1 27.6 31.2 61.4 31.2 96.6.1 49-1.6 97.9-2.7 146.9-.2 9.5-1.1 19-1.2 28.5-.1 9.4 3.6 15 14.6 14.1 52.9-4 105-12.3 156-27.1 7-2 9.7-7.1 9.2-14.2-1.9-26.5 1.9-53.1-6-79.5-3.8-12.7-.9-27.5-.6-41.4.9-44.6 2.1-89.3 3-133.9.5-25.3 12.6-42.8 34.8-53.8 13.4-6.6 20.1-5.5 30 5.7 19.5 22.2 29.6 48.5 30.9 77.8 2.5 55.1 3.6 110.4 7.2 165.5 3 44.8 8.3 89.5 13.7 134.1 5.9 48.9 14.4 97.5 19.4 146.4 3.4 33.4 4 67.2 3.5 100.8-.3 18.9-16.9 28.9-30.3 39.4-15.5 12.1-31.6 12.2-48.8 2.1-21.3-12.5-41.3-26.1-56.6-46-7.4-9.7-11.6-19.9-11.5-32.3.4-23.2.2-46.6.2-70.1zM1807.5 1552.5c-2.1 40-5.1 110.8-20.5 180.4-12.6 56.9-39.9 105.4-78.5 148.2-15.4 17.1-31.5 33.6-47.7 50-6.8 6.9-10.4 14.2-10.7 24.2-.2 4.9-3.5 11.8-7.5 14-22 12.1-43.6 26.2-67.3 33.5-17.2 5.3-37.6 2.9-56.1.2-12.3-1.8-15.4-16.1-17.5-27-2.1-10.5-1.1-21.7-1.2-32.6-.1-13.9.3-27.8 0-41.7-1.2-51.6-4.4-103.2-3.4-154.7 1-49.3 6.2-98.5 9.8-147.8 3-41.2 6.3-82.4 9.7-123.5 4.4-53.2 8.5-106.4 13.7-159.5 2.7-28 25.8-48.4 53.8-50 30.8-1.8 62.1-2.2 91.4 7.1 25.4 8.1 49.6 20.8 73 34 8.3 4.7 13.8 15.9 18.4 25.1 29.9 59.4 43.4 122.7 40.6 220.1zm-53.5-18.7c-1-.1-2.1-.2-3.1-.3 2.6-51.2-9-100.1-25-148-4.1-12.3-14-24.1-24.1-32.8-17.4-14.9-39-22.4-62-24.9-9.5-1-15 3.3-15.6 12.5-2.5 37.2-4.4 74.4-6.9 111.5-2.7 39.8 7.4 79.9-4 119.5-1.1 3.7-.6 8-.4 12 1.6 23.7 4.7 47.4 4.8 71.1.1 44.1-1.3 88.2-2.5 132.3-.8 30.2-2.6 60.5-3.5 90.7-.1 3.1 2 7.8 4.4 9 2 1 6.7-1.4 9.1-3.5 11.4-10.3 23.5-20.1 33.3-31.8 17.5-20.9 36.5-41.4 49.5-65.1 16.7-30.3 25.6-64.4 29.9-98.9 6.6-50.9 10.9-102.2 16.1-153.3zM.5 918.4c.8-14.2.4-28.6 2.6-42.6 3.7-23.1 22.4-41.2 45.5-43.7 15.2-1.7 30.6-1.5 45.9-.7 12.2.7 17.2 6.5 16.6 18.6-1.1 20.4-3.9 40.7-4.9 61.1-.7 15.6-1.5 31.5 1 46.8 4.5 27.9 24.4 43.8 48.7 54.7 2.7 1.2 6.9 1.3 9.6.2 16.7-7 33-17.6 36.4-35.4 6.9-36.5 14.3-73.8 13.3-110.5-.9-31.7-12.1-63.4-20.9-94.5-5-17.8-20.1-29.4-35-39.6-22.2-15.3-45.1-29.7-67.5-44.9C33 648 16.3 590.4 24 523.1c3.8-33.6 10.6-66.7 33.7-93.2 12.7-14.5 26.1-28.6 40.8-41.1 18.5-15.7 41.6-17.6 64.5-13.5 43 7.7 80.1 27.9 109.4 60 8.9 9.8 12.5 25.2 16.6 38.6 8.5 28 13.8 56.6 12.9 86.1-.5 15.9-5 23.2-20.2 26.9-13 3.2-26.5 5.6-39.8 6.7-5.5.4-13.2-1.9-16.7-5.9-13.9-16-24.2-33.6-18.5-56.7 5.3-21.4-11.5-57.4-30.9-68.3-13-7.4-21.2-4-34.4 9-26.7 26.4-30.8 59.1-28.6 93.9 1.2 19.3 12.5 33.4 26 45.4 22.7 20 45.4 40.3 69.9 58.1 25.6 18.6 43.9 43.8 65.1 66.3 21.4 22.7 26.8 51.9 30.1 81.7 4 37.1 8.5 74.1 4.6 111.5-4.3 41-7.4 82.3-30.1 118.7-24.9 40-61.7 59.2-108.1 63-60.1 4.9-105.9-21.2-137.7-68.8C8.5 1005.3-2.4 963 .5 918.4zM1062.2 1365.3c-26-3.4-52-6.5-78-10.3-20.9-3-41.4-2.1-62 2.5-11 2.5-14.6 9.4-13.5 19 6.6 56.6 14.1 113 20.1 169.7 4.2 39.2 7 78.6 9.6 118 1.4 21.7 5.4 27.2 27 25.4 13.6-1.1 27.3-4.6 40.4-8.6 28.3-8.7 58.8 14.8 61.2 44.4 1.7 20.8-5.1 31.2-23.9 37.8-16.8 5.8-32.6 14.3-49.1 21.1-11 4.5-22.3 6.2-34.2 2.1-7.8-2.7-14.3-.3-14.5 9-.5 29.6-1.1 59.2-.3 88.7.4 14.3 5.5 18 20 16.3 21.7-2.5 43.3-6.2 65-9.3 9.7-1.4 19.6-1.9 29.3-3.8 8.1-1.6 16.3-3.6 23.7-7.2 12.2-6 27.9-5.7 37.5 3.4 2.5 2.3 3.5 7.6 3 11.3-1.9 16.6-4.7 33.1-6.9 49.6-2.4 17.9-14.3 30.4-25.9 42-7.8 7.8-19.2 12.9-29.9 16.9-14.6 5.4-30.1 8.7-45.2 12.9-1.8.5-3.7.7-5.2 1.7-29.2 20.6-61.7 18.2-94.7 14.2-9.4-1.1-19.1-2.3-28.3-1.1-32.3 4.2-34.7-3.7-35.7-33.5-2.7-74.8-2.2-149.8-5.9-224.6-4.4-89.8-10.8-179.5-9.8-269.6.2-18.3.5-36.6-.3-54.9-.4-8.1-3.5-16.1-5.5-24.1-1-4.2-3.4-8.3-3.4-12.4-.4-34.8-.7-69.5-.4-104.3.2-20.4 8-26.6 28.4-27.5 22.6-1 45-3.7 67.6-5.1 7.5-.5 15.1.8 22.7 1.1 9.4.3 18.8 1.2 28.2.4 30.5-2.5 60.5 1 90.2 7.7 11.4 2.5 22.9 4.7 34 8.2 13.9 4.4 19 12.6 19.2 27.2 0 2.6 0 5.1-.1 7.7-1.6 30.4-6.5 35-36.5 35h-17.6c-.1 1.3-.2 2.1-.3 3zM579.8 1674.4c-10.2 12.8-8.4 26.8-9.9 40-6.1 53.7-11.8 107.4-17.9 161.1-.6 5-2.1 10-4.3 14.5-7.6 15.6-13.7 19.1-30.8 17.4-10.1-1-20.6-1.9-30.1-5-4.7-1.6-11-8.2-11-12.6-.2-20.3-.1-40.8 2.9-60.8 9.8-64.5 21.7-128.8 31.1-193.4 4.4-30 4.1-60.6 7.4-90.7 6.5-59.1 14-118.2 21.2-177.3 2.9-23.5 5.5-47 9.6-70.3 1.7-9.8 6.5-19.3 10.8-28.5 6-12.8 19-13.5 30.6-15.7 4.5-.8 9.5.1 14.2.7 14.7 2 29 6.7 44.2 3 4.4-1.1 9.8-.5 14.1 1.1 20.8 7.9 41.6 15.7 61.9 24.7 31.7 14 44.1 41.7 50.1 73.6 8.7 46.8 5.3 93.3-5.2 139.2-7.7 33.7-16.1 67.3-25.5 100.5-8.7 30.4-32.8 48.2-64.5 50-2.2.1-4.4.1-6.6.4-12.7 1.5-15.8 6.9-10.1 18.7 10.4 21.3 20.9 42.5 31.4 63.8 29.2 59.2 58.3 118.4 87.6 177.5 10.2 20.6 9.6 19.7-4.3 38.1-9.2 12.2-19.5 20.1-34.7 21.9-8.7 1.1-16-.6-21.7-7.5-4.4-5.3-9.5-10.4-12.7-16.4-28.8-54.5-56.2-109.9-72.6-169.5-9.6-34.7-30-62.9-47.9-92.9-1.3-2.1-4.4-3.3-7.3-5.6zm125.3-207.7c-4-28-6.6-56.4-12.3-84.1-6.9-33.4-11.2-35.7-44.9-38.3-16.8-1.3-23.2 4-25.5 20.8-5.7 41.5-11.5 83-16.9 124.6-2.8 21.7-5.2 43.5-7 65.3-1.1 13.4 2.4 16.6 15.4 16.1 11.3-.4 22.7-.7 33.9-2 20.3-2.4 36.8-11.8 42.4-32.4 6.2-22.7 9.9-46.1 14.9-70zM604.8 691.1c3.1 32.7 5.3 65.5 9.5 98.1 5.6 43.8 12.1 87.5 19.6 131 5.6 32.7 13.3 65 20.6 97.4 1.8 8.2 0 13.9-6.1 19.4-2.9 2.6-4.9 6.8-5.9 10.7-2.7 9.8-4.4 19.9-7.1 29.8-2.4 8.8-6.3 16.7-17.3 16.9-10.7.2-17.3-5.5-19.9-15.3-5.2-19.3-11-38.5-14.7-58-4.8-25.5-7.6-51.3-11.6-76.9-1.8-11.8-8.5-14.8-19.8-9.9-16 7-31.8 14.3-48.1 20.5-6.7 2.5-14.3 2.7-21.5 3.7-15.9 2.1-20.6 7-24.7 23-8.9 34.9-18.3 69.8-27.4 104.6-2.1 8.1-5.1 11.4-15.2 9.9-10.4-1.5-21.5 2.8-32.3 3.5-7.4.4-15.1-.5-22.5-2-11.9-2.4-17.6-9.9-18.2-22.4-.5-10.5-3.7-20.9-3.9-31.4-.1-9.7 1.7-19.5 3.6-29 11.4-57.6 22-115.4 35-172.6 9.2-40.5 22-80.1 32.6-120.2 20.7-78.2 40.5-156.6 61.7-234.6 5.2-19.2 14.2-37.4 22.5-55.6 9.6-21.1 31-24.4 46.7-6.6 6.6 7.6 11.4 18 13.7 27.9 17.3 73.8 33.7 147.8 50.3 221.8 1.2 5.3 1.2 10.9 1.7 16.3-.4-.1-.9-.1-1.3 0zm-48.7 121.6c.4 0 .7-.1 1.1-.1-.3-4.7-.3-9.5-.8-14.2-4.9-44.2-9.5-88.5-15.1-132.7-4.3-33.3-9.9-66.4-15.4-99.5-.5-3.3-4.2-6-6.3-9-1.8 3.2-4.6 6.2-5.1 9.5-2.7 19.2-3.9 38.6-7.3 57.6-14.6 81.5-28.6 163.1-32.6 246-.4 8.6 3.9 11 11.3 10.3 2.8-.3 5.6-1.5 8.3-2.7 18.3-8 36.4-16.7 55.1-23.8 8.7-3.3 11.3-8.2 10.2-16.5-1.2-8.3-2.3-16.6-3.4-24.9zM1775.6 691c3.1 32.7 5.3 65.5 9.5 98.1 5.6 43.8 12.1 87.5 19.6 131 5.6 32.7 13.3 65 20.6 97.4 1.8 8.2.1 13.9-6.1 19.4-2.9 2.6-4.9 6.8-6 10.7-2.8 10.2-4.8 20.6-7.5 30.8-2.3 8.6-6.5 15.7-16.8 16-10.7.3-17.3-5.4-20-15.3-5.2-19.3-11-38.5-14.7-58-4.8-25.5-7.6-51.3-11.6-76.9-1.8-11.8-8.5-14.9-19.8-9.9-16 7-31.8 14.3-48.1 20.5-6.7 2.5-14.3 2.7-21.5 3.7-15.9 2.2-20.7 7.1-24.7 22.9-9.1 35.6-18.9 71.1-28.2 106.7-1.9 7.4-5.4 8.6-13.3 8-11-.7-22.3 2.7-33.5 3.3-7.5.4-15.1-.5-22.5-2-11.8-2.4-17.7-9.9-18.2-22.4-.5-10.5-3.7-20.9-3.9-31.4-.1-9.7 1.7-19.5 3.6-29 11.4-57.6 22-115.3 35-172.6 9.2-40.8 22.1-80.8 32.7-121.3 20.1-76.4 39.3-153.1 60.2-229.4 5.6-20.6 15.1-40.2 24-59.8 9.5-21.1 31-24.5 46.7-6.7 6.6 7.6 11.4 18 13.8 27.9 17.3 73.8 33.7 147.8 50.3 221.8 1.2 5.3 1.2 10.9 1.7 16.3-.4.1-.9.2-1.3.2zm-48.7 121.5c.4 0 .8-.1 1.2-.1-.4-5.1-.6-10.2-1.2-15.3-4.1-35.9-7.9-71.8-12.6-107.6-5.4-41.2-11.5-82.3-17.7-123.5-.5-3.2-4.3-5.8-6.6-8.7-1.6 2.9-4.3 5.7-4.7 8.7-2.6 19.2-3.9 38.5-7.2 57.6-13.9 80.1-29.1 160-32.1 241.6-.6 16 2.6 19.2 18 13 18.9-7.6 37.1-16.9 56.1-24.2 8.2-3.1 11-7.7 10.1-15.5-.9-8.8-2.2-17.4-3.3-26zM1415.4 1562.3c2.4 26.9 3.8 54 7.3 80.7 6.4 48.9 13.3 97.7 21.4 146.3 5.6 33.1 13.8 65.6 20.3 98.6 1 4.8.5 13-2.4 15-10.2 6.9-9.7 17.1-11.7 26.9-1.4 6.8-3.7 13.3-5.5 20-2.3 8.6-7 14.5-16.6 14.7-9.6.2-16.5-4.6-19-13.5-5.7-19.9-11.5-39.8-15.4-60.1-4.8-25.4-7.6-51.3-11.6-76.9-1.8-11.7-8.6-14.6-20-9.6-15.9 7-31.8 14.3-48.1 20.5-6.7 2.5-14.3 2.6-21.5 3.6-15.4 2.1-20.6 7.2-24.4 22.1-9.1 35.6-18.8 71.1-28 106.7-2 7.8-5.2 9.5-13.8 8.8-11-.9-22.3 2.6-33.5 3.5-6.4.5-13.2.5-19.4-.9-15.3-3.4-19.5-9.1-20.9-24.9-.7-8-.9-16.2-3.1-23.8-4.4-15.2 1.9-28.8 4.6-43 10.8-55.1 20.8-110.4 33.2-165.2 8.5-37.6 20.5-74.4 30.4-111.8 20.8-78.9 40.6-158.1 62.1-236.8 5.8-21.3 15.4-41.6 24.5-61.9 9.2-20.7 30.3-24.1 46-7.1 6.4 6.9 11.5 16.4 13.6 25.6 17.6 75.2 34.4 150.7 51.2 226.1 1.2 5.3 1.1 10.9 1.6 16.3-.5 0-.9 0-1.3.1zm-49 119.7c.4 0 .8-.1 1.2-.1-.4-5.1-.7-10.2-1.3-15.3-4.1-34.8-7.8-69.6-12.4-104.3-5.5-41.9-11.5-83.8-17.7-125.7-.5-3.4-3.9-6.3-6-9.4-1.9 3-4.9 5.9-5.4 9.2-2.8 19.5-4.3 39.2-7.6 58.6-13.5 79.4-28.8 158.6-31.6 239.5-.6 17.2 2.2 20 18.4 13.5 18.6-7.5 36.4-16.7 55.1-23.7 9.2-3.5 11.8-8.6 10.6-17.3-1.2-8.4-2.2-16.7-3.3-25z"/><g><path d="M2071.1 1925.4c-21.1 0-39 .3-56.9-.1-28.9-.7-36.8-8.3-36.8-37.5-.1-115.2-1.6-230.5.6-345.7 5.6-287.7 2.6-575.4 4.1-863.1.2-30.3 2.5-60.6 3.3-90.9.5-18.5 11-29.2 26.8-35.5 7.6-3.1 16.1-6.2 24-5.9 33.2 1.5 43.9-20.2 49-46.7 8.8-46.3 9.3-93.1 6.9-140.1-3.6-69.6-12.9-138.6-18.5-207.9-3.2-40-1-80.1 20.7-116.3 27.6-45.9 94.6-48 125.6-3.8 17.9 25.5 21.9 54.8 22.6 84.7 1.7 70.1-13.9 138.4-22 207.5-5.9 50.1-8.5 100.3-6.6 150.7.8 21.8 9.2 41.6 16.2 61.8 2.1 6 6.2 8.6 12.2 9.4 8.2 1.1 16.4 2.5 24.5 3.8 31.4 5 42.5 17.7 42.6 50.1.2 63.5.1 127 0 190.5l-.6 1074.4c0 8.3.3 16.6-.4 24.8-2.3 26.3-11.5 34.7-38.1 35.8-4.8.2-9.7.2-14.5.4-16.5.8-38.3-4.7-30.1 25.5.3 1.2-.3 2.8-.9 4-34 71.5-18 146.4-13.5 220.1 4.2 69.4 14.4 138.5 17.5 208 1.9 43.8-4.5 87.6-50.5 112.1-42.6 22.7-92.1 4.2-108-41.3-16.7-48-9-96.8-4.3-145.5 8.5-88.4 19.5-176.7 19.3-265.8-.1-24.5-3.8-48-13.6-70.5-6.3-14.4-10.3-28.9-.6-47zm24.4-720.4c18.5-34.2 5.3-70.8 13.8-110.3-10.7 10.8-4.5 20.3-10.8 28.6-5.1-15.9-7.8-30.1-1-45 2-4.4 4-10.8-2-12.3-6.6-1.7-7.3 5.9-6.9 9.9 2.8 26.9-9.4 51.9-7.8 79.1 2.3 37.7.3 75.7.4 113.5 0 5.1-1.7 13.4 5 14 7.7.6 8.8-8.3 9-13.9.3-13.7-1.2-27.3-6.4-40.3-5.7-14.1-5.9-28.4-.6-43.7 8.2 6 2.8 14.4 7.3 20.4zm2.5-599.1c0-6.2.1-12.4 0-18.6-.1-3.6-1.1-7.4-5.1-7.9-5.5-.7-6.8 3.7-7.1 8-.4 6.9.2 13.9-.7 20.7-6.3 51.2 9 102.9-3.4 154-1.2 4.9-1.5 12.3 6.4 12.7 5.9.3 8.1-5.8 7.9-10.4-.5-17.9 7.3-36.6-4.6-53.6-4.1-5.9-2-12.2 2.3-17.1 14-16 11.4-34.7 7.8-52.9-2.4-11.7-4.5-23.1-3.5-34.9z"/></g><path d="M956.6 831.5c-2.4 50.8-10.8 107.4-43.9 155.8-18.6 27.2-42.8 50.7-65 75.3-10.4 11.6-22.7 21.5-33.2 33-5.1 5.6-10 6.4-16.5 4.4-16-4.8-32-9.7-48.1-14.4-9-2.6-15.8-7.7-18.4-17-3.4-12.2-6.6-24.4-9.6-36.7-1.6-6.7-2.6-13.6-4.3-20.3-1.4-5.8-6.7-13.4-4.6-16.8 5.9-9.6 14.6-17.5 22.4-25.8 1.4-1.5 3.8-2.4 5.9-2.7 38.8-6.1 57.1-36.7 76.7-65 19.2-27.7 27-59.3 27.6-92.9.3-12.8 2.2-25.5 3.4-38.2 1.3-13.5-2.1-25.4-12.2-34.7-16.9-15.6-33.9-31.2-51-46.6-44.5-40.3-57.2-91.4-51.4-149.1 3.1-30.6 7.1-60.7 24.2-87.6 25-39.3 55-72.9 100.5-88.7 9.3-3.2 21.5-9.5 28.1 1.3 7.1 11.6 14.6 26.2 5.4 40-14.4 21.8-29.5 43.4-46.3 63.4-12.3 14.7-24.2 29.3-30.2 47.7-8.2 25-4.1 47.7 14.3 66.9 19.5 20.3 39.3 40.3 59.3 60.2 22.8 22.7 37.3 49.8 46.4 80.6 10.1 33 20.6 66 20.5 107.9z"/></svg>