<svg xmlns="http://www.w3.org/2000/svg" viewBox="312.1 23.2 277.5 180.1"><g fill="#FFF"><path d="M332.3 66c0-15.6 6.1-25 20.1-25 14.1 0 20.1 9.3 20.1 25.3v5.8h18.7v-4.8c0-26.7-12.5-44.1-39.4-44.1-26.5 0-39.1 16.9-39.1 44.1 0 49.7 59 53.3 59 92.7 0 15.9-6.6 25.3-20.6 25.3-14.1 0-20.7-9.3-20.7-25.3v-11.1h-18.3V159c0 26.7 12.6 44 39.5 44 27 0 39.8-17.4 39.8-44 .2-49.6-59.1-53.4-59.1-93zM428.3 106.1V23.2h-19.6v180h19.6v-79.5h43.3v79.4h19.6V106h-62.9v.1zm43.3-82.9v65.3h19.6V23.2h-19.6zM571.2 23.2v136.3c0 15.9-6.3 25.6-20.4 25.6-14.3 0-20.7-9.6-20.7-25.6V23.2h-19.4v135.4c0 26.7 12.3 44.7 39.4 44.7 27.2 0 39.5-18 39.5-44.7V23.2h-18.4z"/></g></svg>