<svg xmlns="http://www.w3.org/2000/svg" viewBox="0 0 454.662 406.204"><path d="M32.8 198c.6 0 .9.3.9.9v5.5c0 .6-.3.9-.9.9H21.1v28.2c0 .6-.3.9-.9.9h-5.9c-.6 0-.9-.3-.9-.9v-28.2H1.7c-.6 0-.9-.3-.9-.9v-5.5c0-.6.3-.9.9-.9h31.1zM80.6 198c.6 0 .9.3.9.9v5.4c0 .6-.3.9-.9.9H60.3v6.8h17.8c.6 0 .9.3.9.9v5.4c0 .6-.3.9-.9.9H60.3v7.9h20.9c.6 0 .9.3.9.9v5.4c0 .6-.3.9-.9.9H53.4c-.6 0-.9-.3-.9-.9v-34.7c0-.5.5-.9.9-.9h27.2zM120.4 198c8.1 0 14.2 5.8 14.2 13.3 0 7.8-6.1 13.5-14.2 13.5h-9.7v8.8c0 .6-.3.9-.9.9h-5.9c-.6 0-.9-.3-.9-.9v-34.7c0-.6.3-.9.9-.9h16.5zm0 19.4c4.1 0 6.4-2.5 6.4-6.1 0-3.5-2.3-6-6.4-6h-9.7v12.1h9.7zM161.4 198c.6 0 .9.3.9.9v13.5l-.3 10.7h.5l7.7-11.2 10-13.4c.3-.4.8-.6 1.4-.6h5.8c.6 0 .9.3.9.9v34.7c0 .6-.3.9-.9.9h-5.8c-.6 0-.9-.3-.9-.9v-13.7l.3-10.8h-.5l-9.5 13.8-8.1 11.1c-.3.4-.7.6-1.1.6h-6.2c-.6 0-.9-.3-.9-.9v-34.7c0-.6.3-.9.9-.9h5.8zM237.5 198c.6 0 .9.3.9.9v5.4c0 .6-.3.9-.9.9h-20v4.7h10.1c7.8 0 14.1 4.7 14.1 12.3 0 7.5-6.3 12.3-14.1 12.3h-17c-.6 0-.9-.3-.9-.9v-34.7c0-.6.3-.9.9-.9h26.9zm-20 29.3h10.1c4 0 6.3-1.9 6.3-5.1 0-3.3-2.3-5.1-6.3-5.1h-10.1v10.2zM289.3 198c.6 0 .9.3.9.9v5.4c0 .6-.3.9-.9.9H269v6.8h17.8c.6 0 .9.3.9.9v5.4c0 .6-.3.9-.9.9H269v7.9h20.9c.6 0 .9.3.9.9v5.4c0 .6-.3.9-.9.9h-27.7c-.6 0-.9-.3-.9-.9v-34.7c0-.5.5-.9.9-.9h27.1zM329.1 198c8.1 0 14.2 5.8 14.2 13.3 0 7.8-6.1 13.5-14.2 13.5h-9.7v8.8c0 .6-.3.9-.9.9h-5.9c-.6 0-.9-.3-.9-.9v-34.7c0-.6.3-.9.9-.9h16.5zm0 19.4c4.1 0 6.4-2.5 6.4-6.1 0-3.5-2.3-6-6.4-6h-9.7v12.1h9.7zM370.2 198c.6 0 .9.3.9.9v14.5l15.1-14.9c.4-.3 1-.5 1.7-.5h8.2c.6 0 .8.5.3 1l-16 15 17 19.5c.5.5.2 1-.4 1h-8c-.7 0-1.3-.2-1.7-.7L375 218.5l-4 3.1v11.9c0 .6-.3.9-.9.9h-5.9c-.6 0-.9-.3-.9-.9v-34.7c0-.6.3-.9.9-.9h6zM443.6 227.3h-18.2l-2.5 6.4c-.2.5-.6.8-1.1.8H415c-.7 0-.9-.3-.7-.9l15.8-35.1c.1-.3.4-.5.9-.5h7.6c.5 0 .7.2.9.5l15.1 34.9c.2.5-.1 1.1-.7 1.1h-6.4c-.7 0-1.1-.3-1.4-.9l-2.5-6.3zm-15.4-7h12.7l-5.9-15h-.7l-6.1 15zM116.4 257.5c.3 0 .5.2.5.5v6.7h8.6V258c0-.3.2-.5.5-.5h3c.3 0 .5.2.5.5v17.9c0 .3-.2.5-.5.5h-3c-.3 0-.5-.2-.5-.5v-7.4h-8.6v7.4c0 .3-.2.5-.5.5h-3c-.3 0-.5-.2-.5-.5V258c0-.3.2-.5.5-.5h3zM146.3 257.2c5.4 0 9.9 4.2 9.9 9.7 0 5.6-4.5 9.7-9.9 9.7-5.5 0-9.9-4.1-9.9-9.7 0-5.5 4.5-9.7 9.9-9.7zm-5.8 9.8c0 3.4 2.4 5.9 5.9 5.9 3.4 0 5.8-2.5 5.8-5.9 0-3.5-2.4-5.9-5.8-5.9-3.5-.1-5.9 2.4-5.9 5.9zM176.8 266.3c2.1.7 3.3 2.3 3.3 4.4 0 3.4-2.6 5.7-6.5 5.7h-10c-.3 0-.5-.2-.5-.5V258c0-.3.2-.5.5-.5h9.2c3.5 0 5.9 2.2 5.9 5.2 0 1.5-.7 2.7-2 3.4v.2zm-9.7-1.4h5.8c1.1 0 1.9-.7 1.9-1.8s-.7-1.8-1.9-1.8h-5.8v3.6zm0 7.7h6.4c1.6 0 2.6-.8 2.6-2 0-1.3-.9-2-2.6-2h-6.4v4zM200.6 272.6h-9.4l-1.3 3.3c-.1.3-.3.4-.6.4h-3.4c-.3 0-.4-.2-.3-.5l8.2-18.1c.1-.2.2-.3.4-.3h3.9c.2 0 .4.1.4.3l7.8 18c.1.3-.1.6-.4.6h-3.3c-.3 0-.6-.2-.7-.5l-1.3-3.2zm-8-3.6h6.6l-3-7.7h-.4l-3.2 7.7zM216 270.2c-2.1-1.2-3.5-3-3.5-5.8 0-3.9 3.2-6.9 7.4-6.9h8.5c.3 0 .5.2.5.5v17.9c0 .3-.2.5-.5.5h-3c-.3 0-.5-.2-.5-.5v-4.6h-5.2l-2.8 4.7c-.1.2-.4.4-.8.4h-3.3c-.4 0-.5-.3-.3-.6l3.5-5.6zm3.8-8.9c-2.1 0-3.3 1.3-3.3 3.1s1.2 3.1 3.3 3.1h5.1v-6.2h-5.1zM263.7 257.5c.3 0 .5.2.5.5v6.6l6.6-6.8c.2-.2.4-.3.8-.3h4.2c.4 0 .4.4.2.7l-7.4 7 8.1 10.7c.1.2 0 .5-.3.5h-4.1c-.2 0-.4-.1-.6-.3l-5.9-8.6-1.6 1.2v7.3c0 .3-.2.5-.6.5h-3c-.2 0-.4-.2-.4-.5v-7.3l-1.6-1.2-6 8.6c-.2.2-.3.3-.6.3h-4.1c-.3 0-.3-.3-.2-.5l8-10.7-7.3-7c-.3-.2-.2-.7.2-.7h4.2c.4 0 .7.1.8.3l6.6 6.8V258c0-.3.2-.5.5-.5h3zM286.9 257.5c.3 0 .5.2.5.5v7l-.2 5.5h.2l4-5.8 5.2-6.9c.2-.2.4-.3.7-.3h3c.3 0 .5.2.5.5v17.9c0 .3-.2.5-.5.5h-3c-.3 0-.5-.2-.5-.5v-7.1l.2-5.6h-.2l-4.9 7.1-4.2 5.7c-.2.2-.3.3-.6.3H284c-.3 0-.5-.2-.5-.5V258c0-.3.2-.5.5-.5h2.9zM316.3 257.2c3.9 0 7.4 1.9 7.4 5.2 0 1.4-.6 2.6-2 3.2v.2c2.2.7 2.9 2.5 2.9 4.3 0 4-3.8 6.5-8.6 6.5-3.4 0-6.1-.8-8.5-3.2-.2-.2-.2-.4-.1-.7l1.7-2c.2-.2.4-.3.7-.1 1.9 1.7 3.4 2.2 6.3 2.2 3.2 0 4.6-1.1 4.6-2.9 0-1.5-1-2.2-2.8-2.2H313c-.3 0-.5-.2-.5-.5v-2.7c0-.3.2-.5.5-.5h5c1.1 0 1.7-.6 1.7-1.3 0-1.1-1.1-1.8-3.6-1.8s-4.2.5-5.6 1.6c-.3.2-.5.2-.7 0l-1.6-2c-.1-.2-.2-.4.1-.6 2.3-1.9 5.1-2.7 8-2.7zM335 257.5c.3 0 .5.2.5.5v6.7h8.6V258c0-.3.2-.5.5-.5h3c.3 0 .5.2.5.5v17.9c0 .3-.2.5-.5.5h-3c-.3 0-.5-.2-.5-.5v-7.4h-8.6v7.4c0 .3-.2.5-.5.5h-3c-.3 0-.5-.2-.5-.5V258c0-.3.2-.5.5-.5h3zM355.7 258c0-.3.2-.5.5-.5h3c.3 0 .5.2.5.5v4.6h4.9c4.4 0 7.4 3 7.4 6.9 0 4-3 6.9-7.4 6.9h-8.5c-.3 0-.5-.2-.5-.5V258zm4 14.6h5c2.2 0 3.4-1.5 3.4-3.1 0-1.8-1.2-3.1-3.4-3.1h-5v6.2z" fill="#FFF"/><g><path d="M71.3 322.4c.4 1-.1 2.1-.9 2.7-1.2 1-3.1.8-4.1-.6l-3.1-4c-.1-.1-.1-.2 0-.3l7-5.5c.1-.1.2-.1.3 0l2.9 3.7c1 1.3.8 2.8-.2 3.5-.5.5-1.3.7-1.9.5zm-6.8-1.8l2.5 3.2c.7.9 1.8 1.1 2.7.4.9-.7.9-1.7.2-2.6l-2.5-3.2-2.9 2.2zm3.7-2.9l2.4 3.1c.5.6 1.2.8 1.9.3.6-.5.7-1.2.1-2l-2.4-3-2 1.6zM84.2 331.1c.1.1.1.2 0 .3l-.4.4c-.1.1-.2.1-.3 0l-2.2-2.5-6 5.4c-.1.1-.2.1-.3 0l-.4-.5c-.1-.1-.1-.2 0-.3l6-5.4-2.2-2.5c-.1-.1-.1-.2 0-.3l.4-.4c.1-.1.2-.1.3 0l5.1 5.8zM91.2 338c2 1.9 2 4.8.1 6.8s-4.9 2-6.8.1c-1.9-1.9-2-4.8-.1-6.8 2-2 4.9-2 6.8-.1zm-6 .9c-1.5 1.5-1.6 3.7 0 5.3 1.6 1.5 3.8 1.4 5.3-.1s1.6-3.8 0-5.3c-1.6-1.6-3.8-1.4-5.3.1zM102.5 348.4c1.5 1.3 1.7 3.3.5 4.7-1.2 1.4-3.2 1.6-4.8.3l-2.6-2.2-1.7 2c-.1.1-.2.1-.3 0l-.5-.4c-.1-.1-.1-.2 0-.3l5.8-6.8c.1-.1.2-.1.3 0l3.3 2.7zm-3.6 4.3c1.2 1 2.4.8 3.2-.2.8-1 .8-2.2-.3-3.2l-2.6-2.2-2.9 3.4 2.6 2.2zM113.4 356.8c2.2 1.6 2.7 4.5 1.1 6.7s-4.5 2.6-6.7 1-2.7-4.5-1-6.7c1.5-2.2 4.4-2.6 6.6-1zm-5.8 1.7c-1.3 1.7-1 3.9.7 5.2 1.8 1.3 4 .9 5.2-.9 1.3-1.7 1-3.9-.7-5.2-1.8-1.2-4-.8-5.2.9zM123 363.6c.1.1.1.2.1.3l-2.4 3.8-1.7 2.5.1.1 5.7-2.2 3.2-1.2h.4l.6.4c.1.1.1.2.1.3l-4.7 7.5c-.1.1-.2.2-.3.1l-.6-.4c-.1-.1-.2-.2-.1-.3l2.4-3.8 1.7-2.5-.1-.1-4.6 1.8-4.3 1.6h-.3l-.7-.4c-.1-.1-.2-.2-.1-.3l4.7-7.5c.1-.1.2-.2.3-.1l.6.4zm2.9-1.7c.1 0 .2.1.2.2 0 .6.2 1.1.8 1.4.6.4 1.1.4 1.6 0 .1-.1.2 0 .3.1l.3.5c.1.1 0 .2-.1.3-.8.5-1.8.5-2.7-.1-.9-.6-1.3-1.4-1.2-2.4 0-.1.1-.2.2-.2l.6.2zM147 377c.1.1.2.1.2.3l-.3 9.7c0 .1-.1.2-.2.2l-.7-.3c-.1-.1-.2-.1-.2-.3l.1-2-5.2-2.5-1.5 1.3c-.1.1-.2.1-.3 0l-.7-.4c-.1-.1-.1-.2 0-.3l7.4-6.3c.1-.1.2-.1.3-.1l1.1.7zm-5.6 4.4l4.4 2.1.2-5.8-.3-.1-4.3 3.8zM160.4 382.8c1.9.7 2.7 2.6 2 4.3-.7 1.7-2.6 2.5-4.4 1.8l-3.1-1.2-.9 2.4c-.1.1-.1.2-.3.1l-.6-.3c-.1-.1-.2-.1-.1-.3l3.3-8.3c.1-.1.1-.2.3-.1l3.8 1.6zm-2.1 5.1c1.4.6 2.5 0 3-1.2s.1-2.4-1.4-2.9l-3.1-1.2-1.6 4.2 3.1 1.1zM170.2 386.3c.1 0 .2.1.1.3l-1.4 4.4 6.3-3c.1-.1.2-.1.3 0l.9.3c.2.1.1.3 0 .3l-5 2.3 2.7 6.1c0 .1 0 .4-.2.3l-.9-.3c-.1 0-.2-.1-.3-.2l-2.3-5.4-2 .8-.9 2.9c0 .1-.1.2-.3.1l-.7-.2c-.1 0-.2-.1-.1-.3l2.7-8.5c0-.1.1-.2.3-.1l.8.2zM189.5 391.7c.2 0 .2.1.2.3l-.1.5c0 .2-.1.2-.3.2l-3.3-.8-1.9 7.9c0 .1-.1.2-.3.2l-.6-.2c-.2 0-.2-.1-.2-.3l1.9-7.9-3.3-.8c-.1 0-.2-.1-.2-.3l.1-.5c0-.2.1-.2.3-.2l7.7 1.9zM196.1 393.1c.2 0 .2.1.2.3l-.8 4.4-.6 3 .1.1 4.5-4.2 2.5-2.3c.1-.1.3-.1.4-.1l.7.1c.2 0 .2.1.2.3l-1.5 8.8c0 .2-.1.2-.3.2l-.7-.1c-.2 0-.2-.1-.2-.3l.8-4.4.6-3-.1-.1-3.6 3.4-3.4 3.1c-.1.1-.2.1-.3.1l-.8-.1c-.2 0-.2-.1-.2-.3l1.5-8.8c0-.2.1-.2.3-.2l.7.1zM210.5 395.3c.2 0 .2.1.2.3l-.3 2.7c-.2 1.7.7 2.7 2.5 2.9 1.1.1 1.9.1 2.8-.2l.5-4.9c0-.2.1-.2.2-.2l.7.1c.2 0 .2.1.2.3l-.9 8.8c0 .2-.1.2-.3.2l-.7-.1c-.2 0-.2-.1-.2-.2l.3-3c-1 .2-1.7.3-2.8.2-2.3-.2-3.7-1.7-3.5-4.1l.3-2.7c0-.2.1-.2.3-.2l.7.1zM230.6 396.7c.2 0 .2.1.2.2v.6c0 .2-.1.2-.2.2l-5.7-.2-.1 2.9 5.4.2c.2 0 .2.1.2.2v.6c0 .2-.1.2-.2.2l-5.4-.2-.1 3.4 5.9.2c.2 0 .2.1.2.2v.6c0 .2-.1.2-.2.2l-6.8-.3c-.2 0-.2-.1-.2-.2l.3-8.9c0-.2.1-.2.2-.2l6.5.3zM245.1 398.2c.1.1.1.2 0 .3l-.5.4c-.1.1-.2.1-.3 0-.8-.9-1.8-1.4-3-1.4-2.1.1-3.6 1.7-3.6 3.9.1 2.1 1.7 3.8 3.8 3.7 1.2 0 2.3-.6 3-1.5.1-.1.2-.1.3 0l.5.4c.1.1.1.2 0 .3-.9 1.2-2.2 1.8-3.8 1.9-2.8.1-4.9-1.9-5-4.7-.1-2.8 2-4.9 4.7-4.9 1.6-.2 3 .4 3.9 1.6zM252 396c.2 0 .2 0 .2.2l.4 4.6 4.6-5.2c.1-.1.2-.2.3-.2l1-.1c.3 0 .2.2.2.3l-3.7 4 4.8 4.6c.1.1.2.3-.1.3l-.9.1c-.1 0-.2 0-.3-.1l-4.2-4.1-1.5 1.5.3 3c0 .2 0 .2-.2.2l-.7.1c-.2 0-.2 0-.2-.2l-.8-8.9c0-.2 0-.2.2-.2l.6.1zM265.6 394.5c.2 0 .2 0 .3.2l.7 4.4.4 3h.1l2.9-5.4 1.6-3c.1-.1.2-.2.3-.2l.7-.1c.2 0 .2 0 .3.2l1.4 8.8c0 .2 0 .2-.2.3l-.7.1c-.2 0-.2 0-.3-.2l-.7-4.4-.4-3h-.1l-2.3 4.4-2.2 4.1c-.1.1-.1.2-.3.2l-.8.1c-.2 0-.2 0-.3-.2l-1.4-8.8c0-.2 0-.2.2-.3l.8-.2zM280 391.8c.1 0 .2 0 .3.2l1 4.3.6 3h.1l2.5-5.6 1.4-3.1.3-.3.7-.2c.2 0 .2 0 .3.2l2.1 8.6c0 .2 0 .2-.2.3l-.7.2c-.2 0-.2 0-.3-.2l-1-4.3-.6-3h-.1l-2 4.5-1.9 4.2c0 .1-.1.2-.3.2l-.8.2c-.2 0-.2 0-.3-.2l-2.1-8.6c0-.2 0-.2.2-.3l.8-.1zm.8-3.3c.1-.1.2-.1.3 0 .4.5.9.6 1.5.5.7-.2 1-.5 1.1-1.1 0-.1.1-.2.3-.2l.6.1c.1 0 .2.1.2.3-.2.9-.9 1.6-1.9 1.8-1 .2-1.9 0-2.6-.8-.1-.1-.1-.2 0-.3l.5-.3zM306.4 384.1c-.1-.1 0-.2.1-.3l.6-.2c.1-.1.2 0 .3.1l.3.9 2-.7c1.8-.7 3.7.1 4.4 2 .7 1.9-.3 3.8-2 4.4l-2 .7.4 1.1c.1.1 0 .2-.1.3l-.6.2c-.1.1-.2 0-.3-.1l-.4-1.1-2 .7c-1.8.7-3.7-.1-4.4-2-.7-1.9.2-3.8 2-4.4l2-.7-.3-.9zm.7 1.9l-2 .7c-1.4.5-1.8 1.7-1.3 3.1.5 1.4 1.6 2 3 1.5l2-.7-1.7-4.6zm2.7 4.1l2-.7c1.4-.5 1.8-1.7 1.3-3.1-.5-1.4-1.7-2-3-1.5l-2 .7 1.7 4.6zM324.4 376.4c.1-.1.2 0 .3.1l.2.5c.1.1 0 .2-.1.3l-5.2 2.4 1.2 2.6 4.9-2.3c.1-.1.2 0 .3.1l.2.5c.1.1 0 .2-.1.3l-4.9 2.3 1.4 3.1 5.4-2.5c.1-.1.2 0 .3.1l.3.5c.1.1 0 .2-.1.3l-6.2 2.9c-.1.1-.2 0-.3-.1l-3.7-8.1c-.1-.1 0-.2.1-.3l6-2.7zM338.1 371.1c.1 0 .2.2.1.3l-.3.6c0 .1-.2.2-.3.1-1.1-.5-2.3-.4-3.3.1-1.9 1-2.5 3.2-1.4 5.1 1 1.9 3.2 2.6 5.1 1.6 1-.6 1.8-1.5 1.9-2.7 0-.1.1-.2.3-.2l.6.1c.1 0 .2.1.2.3-.3 1.5-1.2 2.7-2.5 3.4-2.4 1.3-5.2.5-6.6-1.9-1.3-2.4-.4-5.2 2-6.5 1.3-.8 2.8-.9 4.2-.3zM348.7 362.6c.1-.1.2-.1.3.1l.3.5c.1.1.1.3-.1.3l-2.8 1.8 4.3 6.8c.1.1.1.2-.1.3l-.6.3c-.1.1-.2.1-.3-.1l-4.3-6.8-2.8 1.8c-.1.1-.2.1-.3-.1l-.3-.5c-.1-.1-.1-.2.1-.3l6.6-4.1zM354.3 358.7c.1-.1.2-.1.3.1l2.6 3.6 1.7 2.5h.1l.1-6.1.1-3.4c0-.2.1-.3.2-.4l.6-.4c.1-.1.2-.1.3.1l5.3 7.2c.1.1.1.2-.1.3l-.6.4c-.1.1-.2.1-.3 0L362 359l-1.7-2.5-.1.1-.1 4.9-.1 4.6c0 .1-.1.2-.2.3l-.6.5c-.1.1-.2.1-.3 0l-5.3-7.2c-.1-.1-.1-.2 0-.3l.7-.7zM373 349.2c1-.4 2.1 0 2.7.8 1 1.2.9 3-.5 4.2l-3.8 3.3c-.1.1-.2.1-.3 0l-5.8-6.8c-.1-.1-.1-.2 0-.3l3.6-3.1c1.3-1.1 2.7-.9 3.6.1.5.3.7 1.1.5 1.8zm-4.5 3.2l3-2.5c.6-.5.8-1.3.3-1.9-.5-.6-1.3-.7-2 0l-2.9 2.5 1.6 1.9zm3 3.6l3.1-2.6c.9-.8 1-1.8.3-2.7-.7-.8-1.7-.9-2.6-.1l-3.1 2.6 2.3 2.8zM379.4 337.6c.1-.1.2-.1.3-.1l9 3.7c.1 0 .2.2.1.3l-.6.6c-.1.1-.2.1-.3.1l-1.8-.8-4.1 4 .7 1.9c.1.1 0 .2-.1.3l-.6.6c-.1.1-.2 0-.3-.1l-3.4-9.1c0-.1 0-.2.1-.3l1-1.1zm2.2 6.8l3.5-3.4-5.4-2.2-.2.2 2.1 5.4zM399 330.5c-.1.1-.2.1-.3 0l-6.1-5.4-2.9 3.2 4.3 4.9c.8.9 1 1.9.1 2.9-.4.5-.9.7-1.5.8-.1 0-.2-.1-.2-.2l-.1-.7c0-.1 0-.2.2-.2.4 0 .6-.1.9-.4.4-.4.3-.9-.1-1.5l-4.7-5.5c-.1-.1-.1-.2 0-.3l3.9-4.5c.1-.1.2-.1.3 0l6.7 5.9c.1.1.1.2 0 .3l-.5.7zM396.7 318.8c-.1-.1-.1-.2 0-.3l.4-.6c.1-.1.2-.1.3 0l2 1.5 2.1-2.7c1.2-1.6 3.2-1.9 4.7-.8 1.5 1.1 1.7 3.2.5 4.8l-2.6 3.4c-.1.1-.2.1-.3 0l-7.1-5.3zm7.2 4l2.1-2.7c.9-1.2.6-2.4-.4-3.2-1-.8-2.3-.7-3.2.5l-2.1 2.7 3.6 2.7z" fill="#FFF"/></g><g><path d="M317.8 314.5c-7.5 0-11.3-2.1-15-4.1-3.3-1.8-6.5-3.6-13-3.6-6.4 0-9.6 1.7-13 3.6-3.7 2-7.4 4.1-14.9 4.1s-11.3-2.1-15-4.1c-3.3-1.8-6.5-3.6-13-3.6-6.4 0-9.6 1.7-13 3.6-3.7 2-7.4 4.1-15 4.1s-11.3-2.1-14.9-4.1c-3.3-1.8-6.5-3.6-13-3.6-6.4 0-9.6 1.7-12.9 3.6-3.7 2-7.4 4.1-14.9 4.1v-4.2c6.4 0 9.6-1.7 13-3.6 3.7-2 7.4-4.1 14.9-4.1s11.3 2.1 14.9 4.1c3.3 1.8 6.5 3.6 13 3.6 6.4 0 9.6-1.7 13-3.6 3.7-2 7.4-4.1 14.9-4.1s11.3 2.1 14.9 4.1c3.3 1.8 6.5 3.6 13 3.6 6.4 0 9.6-1.7 13-3.6 3.7-2 7.4-4.1 14.9-4.1s11.3 2.1 15 4.1c3.3 1.8 6.5 3.6 13 3.6v4.2z" fill="#FFF"/></g><g><path d="M289.9 341.2c-7.5 0-11.3-2.1-14.9-4.1-3.3-1.8-6.5-3.6-13-3.6-6.4 0-9.6 1.7-13 3.6-3.7 2-7.4 4.1-14.9 4.1s-11.3-2.1-15-4.1c-3.3-1.8-6.5-3.6-13-3.6-6.4 0-9.6 1.7-13 3.6-3.7 2-7.4 4.1-15 4.1V337c6.4 0 9.6-1.7 13-3.6 3.7-2 7.4-4.1 14.9-4.1s11.3 2.1 15 4.1c3.3 1.8 6.5 3.6 13 3.6 6.4 0 9.6-1.7 13-3.6 3.7-2 7.4-4.1 14.9-4.1s11.3 2.1 15 4.1c3.3 1.8 6.5 3.6 12.9 3.6v4.2z" fill="#FFF"/></g><g><path d="M262 366c-7.5 0-11.3-2.1-14.9-4.1-3.3-1.8-6.5-3.6-13-3.6-6.4 0-9.6 1.7-13 3.6-3.7 2-7.4 4.1-14.9 4.1v-4.2c6.4 0 9.6-1.7 13-3.6 3.7-2 7.4-4.1 14.9-4.1s11.3 2.1 14.9 4.1c3.3 1.8 6.5 3.6 13 3.6v4.2z" fill="#FFF"/></g><g><path d="M3 122.1c0 .2-.1.2-.2.2h-.7c-.2 0-.2-.1-.2-.2V114H.2c-.2 0-.2-.1-.2-.2v-.6c0-.2.1-.2.2-.2h2.5c.2 0 .2.1.2.2v8.9zM12.6 115.9c0 1.5-.9 2.2-2.1 2.9l-2.1 1.3-2.1 1.2v.1l2.8-.1h3.2c.2 0 .2.1.2.2v.6c0 .2-.1.2-.2.2H5c-.2 0-.2-.1-.2-.2l-.1-.7c0-.1.1-.2.2-.3l5.1-3.2c.8-.5 1.5-1.1 1.5-2 0-1.5-1.5-2-2.7-2-1.3 0-2.4.4-3.3 1.4-.1.1-.2.1-.3 0l-.4-.4c-.1-.1-.1-.2 0-.3 1.1-1.2 2.4-1.6 4-1.6 1.8-.2 3.8.7 3.8 2.9zM14.3 117.1c0-.2.1-.2.2-.2h4.2c.2 0 .2.1.2.2v.6c0 .2-.1.2-.2.2h-4.2c-.2 0-.2-.1-.2-.2v-.6zM23.3 122.1c0 .2-.1.2-.2.2h-.7c-.2 0-.2-.1-.2-.2V114h-1.6c-.2 0-.2-.1-.2-.2v-.6c0-.2.1-.2.2-.2h2.5c.2 0 .2.1.2.2v8.9zM32.6 113c.1 0 .2.1.2.2v6.6h1.3c.1 0 .2.1.2.2v.5c0 .1-.1.2-.2.2l-1.3.1v1.3c0 .2-.1.2-.2.2h-.7c-.2 0-.2-.1-.2-.2v-1.3h-6.3c-.2 0-.3-.1-.3-.3l-.1-.8c0-.1 0-.2.1-.3l5.5-6.3c.1-.1.2-.2.4-.2h1.6zm-6.2 6.6v.2h5.2V114h-.4l-4.8 5.6zM36.3 120.6c.5 0 .9.4.9.9s-.4.9-.9.9-.9-.4-.9-.9c-.1-.5.3-.9.9-.9zM43 112.8c2.7 0 4.8 2 4.8 4.8s-2.1 4.8-4.8 4.8c-2.7 0-4.8-2-4.8-4.8 0-2.7 2.1-4.8 4.8-4.8zm-3.7 4.9c0 2.1 1.5 3.8 3.7 3.8 2.1 0 3.7-1.6 3.7-3.8 0-2.1-1.5-3.8-3.7-3.8s-3.7 1.6-3.7 3.8zM56 117c1.1.3 2 1.3 2 2.4 0 2.3-2.5 3-4.4 3-1.9 0-4.4-.7-4.4-3 0-1 .8-2.1 2-2.4-.7-.3-1.2-.9-1.2-1.8 0-1.9 2.2-2.4 3.6-2.4s3.6.5 3.6 2.4c0 .9-.5 1.5-1.2 1.8zm-2.4.6c-1.4 0-3.2.4-3.2 1.8 0 1.6 2 2 3.2 2 1.3 0 3.2-.4 3.2-2 0-1.4-1.8-1.8-3.2-1.8zm2.5-2.4c0-.9-.9-1.4-2.5-1.4s-2.5.4-2.5 1.4c0 1.3 1.7 1.4 2.5 1.4s2.5-.1 2.5-1.4z" fill="#FFF"/></g><g><path d="M425 115.9c0 1.5-.9 2.2-2.1 2.9l-2.1 1.3-2.1 1.2v.1l2.7-.1h3.2c.2 0 .2.1.2.2v.6c0 .2-.1.2-.2.2h-7.3c-.2 0-.2-.1-.2-.2l-.1-.7c0-.1.1-.2.2-.3l5.1-3.2c.8-.5 1.5-1.1 1.5-2 0-1.5-1.5-2-2.7-2-1.3 0-2.4.4-3.3 1.4-.1.1-.2.1-.3 0l-.4-.4c-.1-.1-.1-.2 0-.3 1.1-1.2 2.4-1.6 4-1.6 1.9-.2 3.9.7 3.9 2.9zM431.2 112.8c2.7 0 4.8 2 4.8 4.8s-2.1 4.8-4.8 4.8c-2.7 0-4.8-2-4.8-4.8 0-2.7 2.1-4.8 4.8-4.8zm-3.7 4.9c0 2.1 1.5 3.8 3.7 3.8 2.1 0 3.7-1.6 3.7-3.8 0-2.1-1.5-3.8-3.7-3.8-2.1 0-3.7 1.6-3.7 3.8zM440 122.1c0 .2-.1.2-.2.2h-.7c-.2 0-.2-.1-.2-.2V114h-1.6c-.2 0-.2-.1-.2-.2v-.6c0-.2.1-.2.2-.2h2.5c.2 0 .2.1.2.2v8.9zM446.2 116c2.1 0 3.9 1 3.9 3.2 0 2.1-2 3.3-4 3.3-2.8 0-4.4-2-4.4-4.8s1.9-4.9 4.6-4.9c1.2 0 2.2.2 3.1.8.1.1.1.2.1.3l-.3.5c-.1.1-.2.2-.3.1-.8-.5-1.6-.7-2.6-.7-2 0-3.1 1.2-3.4 3.1.9-.5 1.9-.9 3.3-.9zm0 5.4c1.4 0 2.8-.7 2.8-2.3 0-1.6-1.4-2.1-2.8-2.1-1.3 0-2.3.3-3.4.9.2 2.4 1.4 3.5 3.4 3.5z" fill="#FFF"/></g><g fill="#FFF"><path d="M125.7 0h3.8v67.7h-3.8zM137.1 0h3.8v67.7h-3.8zM148.6 0h3.8v67.7h-3.8zM160 0h3.8v67.7H160zM171.5 0h3.8v67.7h-3.8zM182.9 0h3.8v67.7h-3.8zM297.4 0h3.8v67.7h-3.8zM308.8 0h3.8v67.7h-3.8zM320.3 0h3.8v67.7h-3.8zM331.7 0h3.8v67.7h-3.8z"/><path d="M289.8 68.5V0H286v63.6l-7.6-9.8V0h-3.8v48.9l-7.6-9.8V0h-3.8v40.3l-7.6 9.8V0h-3.8v46.5l-7.6-9.8V0h-3.8v31.7l-7.6-9.8V0H229v23.2l-7.6 9.8V0h-3.8v37.9l-7.6 9.8V0h-3.8v52.6l-7.6 9.8V0h-3.8v67.3l-20.9 26.8-9.6-12.3-1.5-1.9-70.7 90.9h277.6L289.8 68.5zM162.4 86.1l11.1 14.2 15.4 19.8v.1l-15.2 19.5 3 2.3 14.7-18.9c2.3 2.5 7 7.4 13.7 12.4 12.3 9.2 25.1 14.1 37 14.1 11.9 0 24.6-4.9 37-14.1 9.2-6.9 14.9-13.8 15.2-14.1l1.1-1.3-1.1-1.3c-.2-.3-5.9-7.1-15.2-14.1-12.3-9.2-25.1-14.1-37-14.1-11.9 0-24.6 4.9-37 14.1-6.6 5-11.4 9.9-13.7 12.4l-15.5-19.9 55.2-70.9L254.9 57l10.5-13.5 96.1 123.4h-262l62.9-80.8zm115.5 45c-9 7-21.8 14.4-35.8 14.4-23.1 0-42.8-20-47.7-25.3 4.9-5.4 24.6-25.4 47.7-25.4s42.8 20 47.7 25.4c-1.5 1.6-4.2 4.5-8 7.8l-12.4-3.8-1.2 4 9.7 2.9z"/><circle r="4.1" cy="114.6" cx="269.7"/></g></svg>