<svg xmlns="http://www.w3.org/2000/svg" overflow="scroll" viewBox="0 0 68.4 72.725"><circle r="34.2" cy="34.2" cx="34.2" fill="#FFF"/><path d="M51.5 29.5L56.2 17c1.1-2.3-2.7-6.5-8.4-9.3-5.7-2.8-11.3-3.3-12.5-1.1l-7.2 11.2c-.1.1-.1.2-.1.2-1 2 1.3 5.3 5.3 8.2l8.3 4.2c4.7 1.5 8.7 1.4 9.7-.6.1-.1.1-.2.2-.3z" fill="#FDDA41"/><path d="M36.1 70.2l6.1-16.3c.9-2.4-1.6-6-6-9.3l5.3-14.1 1.7-4.5c.4-.8-.9-2.3-3-3.4-2-1-4-1.2-4.4-.4l-2.7 4.1L24.9 39c-5.3-1.7-9.7-1.5-11.1.6L4.5 54.3c-.1.1-.1.2-.2.3-1.7 3.5 3.9 9.9 12.7 14.3 8.7 4.4 17.3 5.1 19 1.6.1-.1.1-.2.1-.3z" fill="#FDDA41"/><path d="M36 70.5c-1.8 3.5-10.3 2.8-19-1.6C8.2 64.5 2.6 58.1 4.3 54.6c.1-.1.1-.2.2-.3 2.1-3.2 10.4-2.4 18.9 1.9 8.5 4.3 14.1 10.4 12.8 14-.1.1-.1.2-.2.3zM51.3 29.8c-1 2-5 2.1-9.7.6l1.7-4.5c.4-.8-.9-2.3-3-3.4-2-1-4-1.2-4.4-.4l-2.7 4.1C29.2 23.3 27 20 28 18c0-.1.1-.2.1-.3 1.6-2.3 7.7-1.7 13.9 1.4 6.2 3.1 10.3 7.6 9.5 10.2-.1.3-.1.4-.2.5z" fill="#E2B641"/><path d="M56.2 17c1.1-2.3-2.7-6.5-8.4-9.3-5.7-2.8-11.3-3.3-12.5-1.1l-7.2 11.2c1.6-2.3 7.7-1.7 13.9 1.4 6.2 3.1 10.3 7.6 9.5 10.2L56.2 17zM34.2 50l.1-.2c-.1.1-.1.2-.1.2z" fill="#FDDA41"/><path d="M42.3 53.9c.9-2.4-1.6-6-6-9.3l5.3-14.1 1.7-4.5c.4-.8-.9-2.3-3-3.4-2-1-4-1.2-4.4-.4l-2.7 4.1L25 39c-5.3-1.7-9.7-1.5-11.1.6L4.5 54.3c2.1-3.2 10.4-2.4 18.9 1.9 8.5 4.3 14.1 10.4 12.8 14l6.1-16.3z" fill="#FDDA41"/></svg>